{
  "asset": {
    "version": "2.0",
    "generator": "Created using the official Cinema 4D glTF Exporter 1.000x284978"
  },
  "scenes": [
    {
      "nodes": [0]
    }
  ],
  "nodes": [
    {
      "name": "Null",
      "translation": [
        1.9207385778427125, -13.987407684326172, 6.504530906677246
      ],
      "children": [1, 2, 3],
      "rotation": [0.0, 0.0, 0.0, -1.0],
      "scale": [1.0, 1.0, 1.0]
    },
    {
      "name": "Disc",
      "translation": [3.300811529159546, 48.39006042480469, 7.217103481292725],
      "rotation": [-0.5924755930900574, 0.0, 0.0, -0.80558842420578],
      "scale": [1.0, 1.0, 1.0],
      "mesh": 0
    },
    {
      "name": "Cube",
      "translation": [
        -1.7464755773544312, 18.10913848876953, -1.790212869644165
      ],
      "rotation": [0.0, 0.0, 0.0, -1.0],
      "scale": [1.0, 1.0, 1.0],
      "mesh": 1
    },
    {
      "name": "remesh_9_combined_Remeshed",
      "translation": [
        0.38566258549690249, 39.02774429321289, -4.35634183883667
      ],
      "rotation": [0.0, 0.0, 0.0, -1.0],
      "scale": [1.0, 1.0, 1.0],
      "mesh": 2
    }
  ],
  "meshes": [
    {
      "name": "Disc",
      "primitives": [
        {
          "attributes": {
            "POSITION": 1,
            "NORMAL": 2,
            "TEXCOORD_0": 3
          },
          "indices": 0,
          "material": 0
        }
      ]
    },
    {
      "name": "Cube",
      "primitives": [
        {
          "attributes": {
            "POSITION": 5,
            "TEXCOORD_0": 6
          },
          "indices": 4,
          "material": 1
        }
      ]
    },
    {
      "name": "remesh_9_combined_Remeshed",
      "primitives": [
        {
          "attributes": {
            "POSITION": 8,
            "NORMAL": 9,
            "TEXCOORD_0": 10
          },
          "indices": 7,
          "material": 2
        }
      ]
    }
  ],
  "accessors": [
    {
      "bufferView": 0,
      "type": "SCALAR",
      "componentType": 5123,
      "count": 24,
      "max": [8],
      "byteOffset": 0,
      "min": [0]
    },
    {
      "bufferView": 1,
      "type": "VEC3",
      "componentType": 5126,
      "count": 9,
      "max": [1.302201747894287, 0.0, 1.302201747894287],
      "byteOffset": 0,
      "min": [-1.302201747894287, 0.0, -1.302201747894287]
    },
    {
      "bufferView": 1,
      "type": "VEC3",
      "componentType": 5126,
      "count": 9,
      "max": [0.0, 1.0, 0.0],
      "byteOffset": 12,
      "min": [0.0, 1.0, 0.0]
    },
    {
      "bufferView": 1,
      "type": "VEC2",
      "componentType": 5126,
      "count": 9,
      "max": [1.0, 1.0],
      "byteOffset": 24,
      "min": [0.0, 0.0]
    },
    {
      "bufferView": 2,
      "type": "SCALAR",
      "componentType": 5123,
      "count": 120,
      "max": [58],
      "byteOffset": 0,
      "min": [0]
    },
    {
      "bufferView": 3,
      "type": "VEC3",
      "componentType": 5126,
      "count": 59,
      "max": [14.386609077453614, 4.101274013519287, 12.107036590576172],
      "byteOffset": 0,
      "min": [-14.386609077453614, -4.101274013519287, -12.107036590576172]
    },
    {
      "bufferView": 3,
      "type": "VEC2",
      "componentType": 5126,
      "count": 59,
      "max": [1.0, 1.0],
      "byteOffset": 12,
      "min": [0.0, 0.0]
    },
    {
      "bufferView": 4,
      "type": "SCALAR",
      "componentType": 5123,
      "count": 9285,
      "max": [1882],
      "byteOffset": 0,
      "min": [0]
    },
    {
      "bufferView": 5,
      "type": "VEC3",
      "componentType": 5126,
      "count": 1883,
      "max": [26.67156219482422, 46.389549255371097, 13.288082122802735],
      "byteOffset": 0,
      "min": [-26.67156219482422, -44.02714538574219, -13.288082122802735]
    },
    {
      "bufferView": 5,
      "type": "VEC3",
      "componentType": 5126,
      "count": 1883,
      "max": [0.9999823570251465, 0.9983917474746704, 0.9994922280311585],
      "byteOffset": 12,
      "min": [-0.9996878504753113, -0.9946452975273132, -0.9992148280143738]
    },
    {
      "bufferView": 5,
      "type": "VEC2",
      "componentType": 5126,
      "count": 1883,
      "max": [0.9723023772239685, -0.006119847297668457],
      "byteOffset": 24,
      "min": [0.00011152029037475586, -0.9997033476829529]
    }
  ],
  "bufferViews": [
    {
      "buffer": 0,
      "byteOffset": 0,
      "byteLength": 48,
      "target": 34963
    },
    {
      "buffer": 0,
      "byteOffset": 48,
      "byteLength": 288,
      "target": 34962,
      "byteStride": 32
    },
    {
      "buffer": 1,
      "byteOffset": 0,
      "byteLength": 240,
      "target": 34963
    },
    {
      "buffer": 1,
      "byteOffset": 240,
      "byteLength": 1180,
      "target": 34962,
      "byteStride": 20
    },
    {
      "buffer": 2,
      "byteOffset": 0,
      "byteLength": 18570,
      "target": 34963
    },
    {
      "buffer": 2,
      "byteOffset": 18572,
      "byteLength": 60256,
      "target": 34962,
      "byteStride": 32
    }
  ],
  "buffers": [
    {
      "uri": "data:application/octet-stream;base64,",
      "byteLength": 336
    },
    {
      "uri": "data:application/octet-stream;base64,",
      "byteLength": 1420
    },
    {
      "uri": "data:application/octet-stream;base64,",
      "byteLength": 78828
    }
  ],
  "images": [
    {
      "uri": "data:image/jpeg;base64,"
    },
    {
      "uri": "data:image/jpeg;base64,"
    },
    {
      "uri": "data:image/jpeg;base64,"
    }
  ],
  "samplers": [
    {
      "magFilter": 9729,
      "minFilter": 9729,
      "wrapS": 10497,
      "wrapT": 10497
    },
    {
      "magFilter": 9729,
      "minFilter": 9729,
      "wrapS": 10497,
      "wrapT": 10497
    },
    {
      "magFilter": 9729,
      "minFilter": 9729,
      "wrapS": 10497,
      "wrapT": 10497
    }
  ],
  "textures": [
    {
      "sampler": 0,
      "source": 0
    },
    {
      "sampler": 1,
      "source": 1
    },
    {
      "sampler": 2,
      "source": 2
    }
  ],
  "materials": [
    {
      "pbrMetallicRoughness": {
        "baseColorTexture": {
          "index": 0
        },
        "baseColorFactor": [0.8, 0.8, 0.8, 1.0],
        "metallicFactor": 1.0,
        "roughnessFactor": 0.1
      },
      "emissiveFactor": [0.0, 0.0, 0.0],
      "alphaMode": "OPAQUE",
      "doubleSided": false,
      "name": "Mat.1"
    },
    {
      "pbrMetallicRoughness": {
        "baseColorFactor": [0.09, 0.09, 0.09, 1.0],
        "metallicFactor": 1.0,
        "roughnessFactor": 0.1
      },
      "emissiveFactor": [0.0, 0.0, 0.0],
      "alphaMode": "OPAQUE",
      "doubleSided": false,
      "name": "Mat"
    },
    {
      "pbrMetallicRoughness": {
        "baseColorTexture": {
          "index": 1
        },
        "baseColorFactor": [1.0, 1.0, 1.0, 1.0],
        "metallicFactor": 1.0,
        "roughnessFactor": 0.0
      },
      "normalTexture": {
        "index": 2,
        "scale": 1.0
      },
      "emissiveFactor": [0.0, 0.0, 0.0],
      "alphaMode": "OPAQUE",
      "doubleSided": false,
      "name": "remesh_9_combined_Bake"
    }
  ]
}
