{
  "asset": {
    "version": "2.0",
    "generator": "Created using the official Cinema 4D glTF Exporter 1.000x284978"
  },
  "scenes": [
    {
      "nodes": [0]
    }
  ],
  "nodes": [
    {
      "name": "Null",
      "translation": [4.642552375793457, 24.57516860961914, 4.455507278442383],
      "children": [1, 2, 3],
      "rotation": [0.0, 0.0, 0.0, -1.0],
      "scale": [0.7408289909362793, 0.7408289909362793, 0.7408289909362793]
    },
    {
      "name": "Disc",
      "translation": [7.424924850463867, 19.258752822875978, 8.614124298095704],
      "rotation": [
        -0.5393039584159851, -0.055221207439899448, 0.0660611242055893,
        -0.8376979231834412
      ],
      "scale": [1.0, 1.0, 1.0],
      "mesh": 0
    },
    {
      "name": "Cube",
      "translation": [
        -4.3279266357421879, -27.790800094604493, -3.961111545562744
      ],
      "rotation": [
        -3.99553901075933e-9, -0.036012738943099979, 7.599400220215103e-9,
        -0.9993513226509094
      ],
      "scale": [1.0, 1.0, 1.0],
      "mesh": 1
    },
    {
      "name": "remesh_25_combined_Remeshed",
      "translation": [-3.0969982147216799, 8.5320463180542, -4.653012275695801],
      "rotation": [0.0, -0.537299633026123, 0.0, -0.8433914184570313],
      "scale": [1.0, 1.0, 1.0],
      "mesh": 2
    }
  ],
  "meshes": [
    {
      "name": "Disc",
      "primitives": [
        {
          "attributes": {
            "POSITION": 1,
            "NORMAL": 2,
            "TEXCOORD_0": 3
          },
          "indices": 0,
          "material": 0
        }
      ]
    },
    {
      "name": "Cube",
      "primitives": [
        {
          "attributes": {
            "POSITION": 5,
            "TEXCOORD_0": 6
          },
          "indices": 4,
          "material": 1
        }
      ]
    },
    {
      "name": "remesh_25_combined_Remeshed",
      "primitives": [
        {
          "attributes": {
            "POSITION": 8,
            "NORMAL": 9,
            "TEXCOORD_0": 10
          },
          "indices": 7,
          "material": 2
        }
      ]
    }
  ],
  "accessors": [
    {
      "bufferView": 0,
      "type": "SCALAR",
      "componentType": 5123,
      "count": 24,
      "max": [8],
      "byteOffset": 0,
      "min": [0]
    },
    {
      "bufferView": 1,
      "type": "VEC3",
      "componentType": 5126,
      "count": 9,
      "max": [1.5204386711120606, 0.0, 1.5204386711120606],
      "byteOffset": 0,
      "min": [-1.5204386711120606, 0.0, -1.5204386711120606]
    },
    {
      "bufferView": 1,
      "type": "VEC3",
      "componentType": 5126,
      "count": 9,
      "max": [0.0, 1.0, 0.0],
      "byteOffset": 12,
      "min": [0.0, 1.0, 0.0]
    },
    {
      "bufferView": 1,
      "type": "VEC2",
      "componentType": 5126,
      "count": 9,
      "max": [1.0, 1.0],
      "byteOffset": 24,
      "min": [0.0, 0.0]
    },
    {
      "bufferView": 2,
      "type": "SCALAR",
      "componentType": 5123,
      "count": 120,
      "max": [58],
      "byteOffset": 0,
      "min": [0]
    },
    {
      "bufferView": 3,
      "type": "VEC3",
      "componentType": 5126,
      "count": 59,
      "max": [21.12186622619629, 4.788609504699707, 17.715938568115236],
      "byteOffset": 0,
      "min": [-21.12186622619629, -4.788609504699707, -18.320247650146486]
    },
    {
      "bufferView": 3,
      "type": "VEC2",
      "componentType": 5126,
      "count": 59,
      "max": [1.0, 1.0],
      "byteOffset": 12,
      "min": [0.0, 0.0]
    },
    {
      "bufferView": 4,
      "type": "SCALAR",
      "componentType": 5123,
      "count": 14463,
      "max": [3300],
      "byteOffset": 0,
      "min": [0]
    },
    {
      "bufferView": 5,
      "type": "VEC3",
      "componentType": 5126,
      "count": 3301,
      "max": [21.949960708618165, 58.49080276489258, 32.281463623046878],
      "byteOffset": 0,
      "min": [-21.949960708618165, -58.49080276489258, -32.281463623046878]
    },
    {
      "bufferView": 5,
      "type": "VEC3",
      "componentType": 5126,
      "count": 3301,
      "max": [0.9989375472068787, 0.9999375343322754, 0.9991875290870667],
      "byteOffset": 12,
      "min": [-0.9998125433921814, -0.999125063419342, -0.9996875524520874]
    },
    {
      "bufferView": 5,
      "type": "VEC2",
      "componentType": 5126,
      "count": 3301,
      "max": [0.9753463268280029, 0.9999284744262695],
      "byteOffset": 24,
      "min": [0.0014580711722373963, 0.000012993812561035157]
    }
  ],
  "bufferViews": [
    {
      "buffer": 0,
      "byteOffset": 0,
      "byteLength": 48,
      "target": 34963
    },
    {
      "buffer": 0,
      "byteOffset": 48,
      "byteLength": 288,
      "target": 34962,
      "byteStride": 32
    },
    {
      "buffer": 1,
      "byteOffset": 0,
      "byteLength": 240,
      "target": 34963
    },
    {
      "buffer": 1,
      "byteOffset": 240,
      "byteLength": 1180,
      "target": 34962,
      "byteStride": 20
    },
    {
      "buffer": 2,
      "byteOffset": 0,
      "byteLength": 28926,
      "target": 34963
    },
    {
      "buffer": 2,
      "byteOffset": 28928,
      "byteLength": 105632,
      "target": 34962,
      "byteStride": 32
    }
  ],
  "buffers": [
    {
      "uri": "data:application/octet-stream;base64,",
      "byteLength": 336
    },
    {
      "uri": "data:application/octet-stream;base64,",
      "byteLength": 1420
    },
    {
      "uri": "data:application/octet-stream;base64,",
      "byteLength": 134560
    }
  ],
  "images": [
    {
      "uri": "data:image/jpeg;base64,"
    },
    {
      "uri": "data:image/jpeg;base64,"
    },
    {
      "uri": "data:image/jpeg;base64,"
    }
  ],
  "samplers": [
    {
      "magFilter": 9729,
      "minFilter": 9729,
      "wrapS": 10497,
      "wrapT": 10497
    },
    {
      "magFilter": 9729,
      "minFilter": 9729,
      "wrapS": 10497,
      "wrapT": 10497
    },
    {
      "magFilter": 9729,
      "minFilter": 9729,
      "wrapS": 10497,
      "wrapT": 10497
    }
  ],
  "textures": [
    {
      "sampler": 0,
      "source": 0
    },
    {
      "sampler": 1,
      "source": 1
    },
    {
      "sampler": 2,
      "source": 2
    }
  ],
  "materials": [
    {
      "pbrMetallicRoughness": {
        "baseColorTexture": {
          "index": 0
        },
        "baseColorFactor": [0.8, 0.8, 0.8, 1.0],
        "metallicFactor": 1.0,
        "roughnessFactor": 0.1
      },
      "emissiveFactor": [0.0, 0.0, 0.0],
      "alphaMode": "OPAQUE",
      "doubleSided": false,
      "name": "Mat.1"
    },
    {
      "pbrMetallicRoughness": {
        "baseColorFactor": [0.09, 0.09, 0.09, 1.0],
        "metallicFactor": 1.0,
        "roughnessFactor": 0.1
      },
      "emissiveFactor": [0.0, 0.0, 0.0],
      "alphaMode": "OPAQUE",
      "doubleSided": false,
      "name": "Mat"
    },
    {
      "pbrMetallicRoughness": {
        "baseColorTexture": {
          "index": 1
        },
        "baseColorFactor": [1.0, 1.0, 1.0, 1.0],
        "metallicFactor": 1.0,
        "roughnessFactor": 0.0
      },
      "normalTexture": {
        "index": 2,
        "scale": 1.0
      },
      "emissiveFactor": [0.0, 0.0, 0.0],
      "alphaMode": "OPAQUE",
      "doubleSided": false,
      "name": "remesh_25_combined_Bake"
    }
  ]
}
