{
  "nodes": [
    {
      "name": "Cube",
      "translation": [
        2.4853622913360596, -0.34451666474342346, -9.386605262756348
      ],
      "rotation": [0, 0, 0, -1],
      "scale": [0.7653345465660095, 0.5229223966598511, 0.5976579785346985],
      "mesh": 0
    },
    {
      "name": "remesh_6_combined_Remeshed",
      "translation": [
        4.11037540435791, -20.61600685119629, -0.2460082322359085
      ],
      "rotation": [0, 0, 0, -1],
      "scale": [1, 1, 1],
      "mesh": 1
    }
  ],
  "asset": {
    "version": "2.0",
    "generator": "Created using the official Cinema 4D glTF Exporter 1.000x284978"
  },
  "scenes": [
    {
      "nodes": [0, 1]
    }
  ],
  "meshes": [
    {
      "name": "Cube",
      "primitives": [
        {
          "attributes": {
            "POSITION": 1,
            "TEXCOORD_0": 2
          },
          "indices": 0,
          "material": 0,
          "mode": 4
        }
      ]
    },
    {
      "name": "remesh_6_combined_Remeshed",
      "primitives": [
        {
          "attributes": {
            "POSITION": 4,
            "NORMAL": 5,
            "TEXCOORD_0": 6
          },
          "indices": 3,
          "material": 1,
          "mode": 4
        }
      ]
    }
  ],
  "accessors": [
    {
      "bufferView": 0,
      "count": 120,
      "type": "SCALAR",
      "componentType": 5123,
      "byteOffset": 0,
      "min": [0],
      "max": [58]
    },
    {
      "bufferView": 1,
      "count": 59,
      "type": "VEC3",
      "componentType": 5126,
      "byteOffset": 0,
      "min": [-27.549489974975586, -10.115955352783203, -26.801984786987305],
      "max": [27.549489974975586, 10.115955352783203, 26.801984786987305]
    },
    {
      "bufferView": 1,
      "count": 59,
      "type": "VEC2",
      "componentType": 5126,
      "byteOffset": 12,
      "min": [0, 0],
      "max": [1, 1]
    },
    {
      "bufferView": 2,
      "count": 11850,
      "type": "SCALAR",
      "componentType": 5123,
      "byteOffset": 0,
      "min": [0],
      "max": [2499]
    },
    {
      "bufferView": 3,
      "count": 2500,
      "type": "VEC3",
      "componentType": 5126,
      "byteOffset": 0,
      "min": [-29.31664276123047, 18.346691131591797, -23.95925521850586],
      "max": [29.330427169799805, 96.80017852783203, 14.778829574584961]
    },
    {
      "bufferView": 3,
      "count": 2500,
      "type": "VEC3",
      "componentType": 5126,
      "byteOffset": 12,
      "min": [-0.9995937943458557, -0.999000072479248, -0.999750018119812],
      "max": [0.9997813105583191, 0.999750018119812, 0.9998750686645508]
    },
    {
      "bufferView": 3,
      "count": 2500,
      "type": "VEC2",
      "componentType": 5126,
      "byteOffset": 24,
      "min": [0.0017598803387954831, -0.9502356052398682],
      "max": [0.9998623728752136, -0.013407230377197266]
    }
  ],
  "bufferViews": [
    {
      "buffer": 0,
      "byteOffset": 0,
      "byteLength": 240,
      "target": 34963
    },
    {
      "buffer": 0,
      "byteOffset": 240,
      "byteStride": 20,
      "byteLength": 1180,
      "target": 34962
    },
    {
      "buffer": 0,
      "byteOffset": 1424,
      "byteLength": 23700,
      "target": 34963
    },
    {
      "buffer": 0,
      "byteOffset": 25128,
      "byteStride": 32,
      "byteLength": 80000,
      "target": 34962
    },
    {
      "buffer": 0,
      "byteOffset": 105128,
      "byteLength": 67074
    },
    {
      "buffer": 0,
      "byteOffset": 172208,
      "byteLength": 981200
    }
  ],
  "buffers": [
    {
      "name": "model",
      "byteLength": 1153408,
      "uri": "data:application/octet-stream;base64,"
    }
  ],
  "images": [
    {
      "bufferView": 4,
      "mimeType": "image/jpeg"
    },
    {
      "bufferView": 5,
      "mimeType": "image/jpeg"
    }
  ],
  "samplers": [
    {
      "magFilter": 9729,
      "minFilter": 9729,
      "wrapS": 10497,
      "wrapT": 10497
    },
    {
      "magFilter": 9729,
      "minFilter": 9729,
      "wrapS": 10497,
      "wrapT": 10497
    }
  ],
  "textures": [
    {
      "sampler": 0,
      "source": 0
    },
    {
      "sampler": 1,
      "source": 1
    }
  ],
  "materials": [
    {
      "pbrMetallicRoughness": {
        "baseColorFactor": [0.09, 0.09, 0.09, 1],
        "metallicFactor": 1,
        "roughnessFactor": 0.1
      },
      "emissiveFactor": [0, 0, 0],
      "alphaMode": "OPAQUE",
      "doubleSided": false,
      "name": "Mat"
    },
    {
      "pbrMetallicRoughness": {
        "baseColorTexture": {
          "index": 0,
          "texCoord": 0
        },
        "baseColorFactor": [1, 1, 1, 1],
        "metallicFactor": 1,
        "roughnessFactor": 0
      },
      "normalTexture": {
        "index": 1,
        "scale": 1,
        "texCoord": 0
      },
      "emissiveFactor": [0, 0, 0],
      "alphaMode": "OPAQUE",
      "doubleSided": false,
      "name": "remesh_6_combined_Bake"
    }
  ],
  "scene": 0
}
