<svg xmlns="http://www.w3.org/2000/svg" viewBox="0 0 756.87 363.09"><g id="b0d0060f-1a5c-4f12-adc8-92fd5a8b10d7" data-name="Ñëîé 1"><g style="opacity:0.7"><path d="M756.09,120.84a84.26,84.26,0,0,0-6.77-23.56A95.53,95.53,0,0,0,737.41,77.7a114.32,114.32,0,0,0-14.72-15.47A144,144,0,0,0,706.53,50a167,167,0,0,0-16.94-9.73c-23-11.43-46.89-18.34-71.06-22.21,10.21,6.8,20.25,13.43,29.7,20.68a266.73,266.73,0,0,1,26.66,22.57,147.1,147.1,0,0,1,21.05,25c5.63,8.63,9.44,17.56,10.69,25.68a38.63,38.63,0,0,1-2.69,21.91,50.79,50.79,0,0,1-5.65,9.67,79.19,79.19,0,0,1-8.23,9.28,126.46,126.46,0,0,1-22.42,16.77,225.9,225.9,0,0,1-27.3,13.91,410.56,410.56,0,0,1-61.46,20.3c-21.36,5.4-43.29,9.53-65.45,12.83-25.71,3.75-51.72,6.3-77.87,7.77l82.65,47.71-75.1,43.36a688.36,688.36,0,0,0,86.14-12.87c6.22-1.34,12.43-2.79,18.64-4.31s12.38-3.23,18.55-5c12.33-3.48,24.58-7.48,36.75-11.91,24.29-9,48.29-19.82,71.24-34,5.74-3.52,11.43-7.31,17-11.35s11.06-8.31,16.4-13c10.62-9.3,20.84-19.82,29.51-32.5a121.18,121.18,0,0,0,11.49-20.66,97.11,97.11,0,0,0,7-23.82A87.59,87.59,0,0,0,756.09,120.84Z" style="fill:#f2f2f2"/><path d="M470.43,272.13,327.09,189.38v35.29c-28-1.44-56-4.08-83.52-8.12q-16.62-2.43-33-5.63c-10.9-2.17-21.76-4.48-32.41-7.21s-21.21-5.67-31.47-9.07-20.31-7.11-30-11.24c-4.84-2.06-9.48-4.31-14.08-6.59s-9-4.72-13.21-7.3A127.19,127.19,0,0,1,67,152.76c-6.23-6.06-11-12.34-13.87-18.9A38.37,38.37,0,0,1,50.48,112c1.22-8.11,5-17,10.65-25.67a147.91,147.91,0,0,1,21-25c4.07-4,8.36-7.83,12.81-11.6s9.06-7.45,13.83-11c9.44-7.25,19.49-13.9,29.68-20.71-24.17,3.85-48.08,10.73-71.1,22.16A170.67,170.67,0,0,0,50.42,50,143.65,143.65,0,0,0,34.23,62.16,113.91,113.91,0,0,0,19.5,77.65,95.75,95.75,0,0,0,7.57,97.25,85.13,85.13,0,0,0,.78,120.82a87.94,87.94,0,0,0,.29,25.3,97.5,97.5,0,0,0,7,23.85,121,121,0,0,0,11.48,20.68c8.69,12.71,18.92,23.21,29.54,32.52A259.44,259.44,0,0,0,82.5,247.49c23,14.2,46.95,25,71.26,34q18.26,6.69,36.77,11.92c6.16,1.75,12.35,3.43,18.56,5s12.41,3,18.64,4.31a690.52,690.52,0,0,0,99.36,13.84v38.34Z" style="fill:#f2f2f2"/></g></g></svg>
