<svg xmlns="http://www.w3.org/2000/svg" xmlns:xlink="http://www.w3.org/1999/xlink" viewBox="0 0 191.9 272.62"><defs><clipPath id="clip-path"><path d="M-5418.94,1595.25c0-3.11-31.31-132-31.31-132s-18.78-76.06-25-78.46-231.65-110.41-231.65-110.41l72-73.32h-39.13l-14.09-46.39,61,16.12,98.61,68.7s39.13-15.94,39.13-25.74-15.65-43-15.65-43l-57.91-31.51s-61.05-33-73.57-51.48-61-62.52-61-62.52L-5721,961.36l61,6.26,21.92-34.41-14.09-72.49,32.87-95s28.17-33.1,18.78-47.85S-5649,657.13-5649,657.13l-43.83-46.38L-5649,592-5876,399.5l48.57-59.63,48.48,125.47,32.87,38.56s45.39-42.73,43.82-50.11-6.08-41.9-6.08-41.9-32.61-9.82-31.26-15.83,4.47-20.26,12.3-20.18,53.22,24.7,53.22,24.7,101.74,94.8,106.43,81.27,10.61-54.48,10-66.1-48.69-47.43-53.61-54.56-97.68-107.21-107.22-125.3-21.12-94.52-21.12-94.52,48.3-12.54,48.3-22.8-4.7-76.11-4.7-76.11l70.44-35.89,68.1-40.74s49.21-56.3,59.42-56.3,100.36,5.15,100.36,5.15l84.66,5.81,100.21-11,52,18.78,60.33-4.69,49.6-4.7,46.06,21.1L-4963.32-40l64.43-5s37.16,1.58,38.73,7.84S-4841.55.31-4841.55.31l41.6.16L-4742.77-9l12.52,37.45s-3.13,20.77-6.26,29.17-2.91,24.85,9.5,44,23.37,25.41,21.81,31.68,1.56,8.73-9.39,20.8-42.82,91-42.82,91l-15.66,33.6s-44.54,27.49-31.38,49.82a259.44,259.44,0,0,0,27.25,37.95l37.53,13.54,17.25,23.85,17.37,40.91-9.54,65.72-31.31,23.72s-28.17,57.51-25,66.2,28.17,41.7,28.17,41.7,15.65,19.78,9.39,26.25-28.17,38.68-28.17,38.68l56.5,12.94,10.8,41-15.65,13.81,3.13,44.1,26.61,99.75-90.78,14.54-34.44,16.61,4.7,61.62L-4821,1025.3l-42.26,18.75s-12.52,28.31-4.7,37.76,26.44,57.49,26.44,57.49v22.4l-35.83,9.11s-21.17,24.23-21.54,24.78-5.49,22.46-2.15,30.29,14.93,39.13,14.93,39.13,13.46,25,13.46,31.3-6.26,14.09-6.26,14.09l-37.9,24-20,46.45,14.57,59.48-6.74,36-48.52,20.35-11,39.13-6.26,59.46Z" style="fill:none"/></clipPath><clipPath id="clip-path-2"><rect x="-8607.14" y="-621.35" width="6218.22" height="3109.11" style="fill:none"/></clipPath><clipPath id="clip-path-3"><path d="M-2555.24,1595.25c0-3.11-31.31-132-31.31-132s-18.78-76.06-25-78.46-231.65-110.41-231.65-110.41l72-73.32h-39.13l-14.09-46.39,61,16.12,98.61,68.7s39.13-15.94,39.13-25.74-15.65-43-15.65-43l-57.91-31.51s-61-33-73.57-51.48-61-62.52-61-62.52l-23.48-63.94,61,6.26,21.91-34.41-14.09-72.49,32.87-95s28.17-33.1,18.78-47.85-48.52-60.72-48.52-60.72l-43.82-46.38,43.82-18.79-227-192.46,48.56-59.63,48.48,125.47,32.87,38.56s45.39-42.73,43.82-50.11-6.08-41.9-6.08-41.9-32.61-9.82-31.26-15.83,4.47-20.26,12.3-20.18,53.22,24.7,53.22,24.7,101.74,94.8,106.43,81.27,10.61-54.48,10-66.1-48.69-47.43-53.61-54.56-97.68-107.21-107.22-125.3-21.12-94.52-21.12-94.52,48.3-12.54,48.3-22.8-4.69-76.11-4.69-76.11l70.43-35.89,68.1-40.74s49.21-56.3,59.43-56.3S-2534-85.32-2534-85.32l84.66,5.81,100.21-11,52,18.78,60.33-4.69,49.6-4.7,46.06,21.1L-2099.62-40l64.44-5s37.16,1.58,38.72,7.84S-1977.85.31-1977.85.31l41.6.16L-1879.07-9l12.52,37.45s-3.13,20.77-6.26,29.17-2.91,24.85,9.51,44,23.36,25.41,21.8,31.68,1.56,8.73-9.39,20.8-42.82,91-42.82,91l-15.65,33.6s-44.54,27.49-31.39,49.82a259.44,259.44,0,0,0,27.25,37.95l37.53,13.54,17.25,23.85,17.37,40.91-9.54,65.72-31.31,23.72s-28.17,57.51-25,66.2,28.17,41.7,28.17,41.7,15.65,19.78,9.39,26.25-28.17,38.68-28.17,38.68l56.5,12.94,10.8,41-15.65,13.81,3.13,44.1,26.61,99.75-90.78,14.54-34.44,16.61,4.7,61.62-20.35,13.86-42.26,18.75s-12.52,28.31-4.69,37.76,26.43,57.49,26.43,57.49v22.4l-35.83,9.11s-21.17,24.23-21.54,24.78-5.48,22.46-2.14,30.29,14.92,39.13,14.92,39.13,13.46,25,13.46,31.3-6.26,14.09-6.26,14.09l-37.9,24-20,46.45,14.57,59.48-6.75,36-48.52,20.35-11,39.13-6.26,59.46Z" style="fill:none"/></clipPath><clipPath id="clip-path-4"><rect x="-5743.44" y="-621.35" width="6218.22" height="3109.11" style="fill:none"/></clipPath><clipPath id="clip-path-5"><path d="M-3971,1595.25c0-3.11-31.3-132-31.3-132s-18.79-76.06-25-78.46S-4259,1274.4-4259,1274.4l72-73.32h-39.13l-14.09-46.39,61.05,16.12,98.6,68.7s39.13-15.94,39.13-25.74-15.65-43-15.65-43L-4115,1139.3s-61-33-73.57-51.48-61-62.52-61-62.52l-23.48-63.94,61,6.26,21.91-34.41-14.09-72.49,32.87-95s28.18-33.1,18.78-47.85-48.52-60.72-48.52-60.72l-43.82-46.38,43.82-18.79L-4428,399.5l48.56-59.63L-4331,465.34l32.87,38.56s45.39-42.73,43.83-50.11-6.09-41.9-6.09-41.9-32.61-9.82-31.26-15.83,4.48-20.26,12.3-20.18,53.22,24.7,53.22,24.7,101.74,94.8,106.43,81.27,10.61-54.48,10-66.1-48.69-47.43-53.6-54.56S-4261,254-4270.51,235.89s-21.12-94.52-21.12-94.52,48.3-12.54,48.3-22.8S-4248,42.46-4248,42.46l70.43-35.89,68.1-40.74s49.21-56.3,59.43-56.3,100.35,5.15,100.35,5.15l84.66,5.81,100.21-11,52,18.78,60.33-4.69,49.6-4.7,46.07,21.1L-3515.36-40l64.44-5s37.16,1.58,38.72,7.84S-3393.59.31-3393.59.31l41.6.16L-3294.81-9l12.53,37.45s-3.14,20.77-6.27,29.17-2.9,24.85,9.51,44,23.36,25.41,21.8,31.68,1.56,8.73-9.39,20.8-42.82,91-42.82,91l-15.65,33.6s-44.54,27.49-31.39,49.82a259.44,259.44,0,0,0,27.25,37.95l37.53,13.54,17.25,23.85,17.37,40.91-9.54,65.72-31.31,23.72s-28.17,57.51-25,66.2,28.17,41.7,28.17,41.7,15.66,19.78,9.39,26.25-28.17,38.68-28.17,38.68l56.5,12.94,10.81,41-15.66,13.81,3.13,44.1,26.61,99.75L-3323,933.21l-34.44,16.61,4.7,61.62-20.35,13.86-42.26,18.75s-12.52,28.31-4.69,37.76,26.43,57.49,26.43,57.49v22.4l-35.83,9.11s-21.17,24.23-21.54,24.78-5.48,22.46-2.14,30.29,14.92,39.13,14.92,39.13,13.46,25,13.46,31.3-6.26,14.09-6.26,14.09l-37.89,24-20,46.45,14.57,59.48-6.75,36-48.52,20.35-11,39.13-6.26,59.46Z" style="fill:none"/></clipPath><clipPath id="clip-path-6"><rect x="-7159.17" y="-621.35" width="6218.22" height="3109.11" style="fill:none"/></clipPath></defs><g style="isolation:isolate"><g id="Layer_1" data-name="Layer 1"><g style="mix-blend-mode:overlay;opacity:0.9"><g style="clip-path:url(#clip-path)"><g id="_12" data-name="12" style="mix-blend-mode:lighten;opacity:0.47000000000000003"><g style="clip-path:url(#clip-path-2)"><path d="M7.09,6A4.28,4.28,0,1,1,11.37,1.7,4.28,4.28,0,0,1,7.09,6Z" style="fill:#fdb017"/></g></g></g></g><g style="mix-blend-mode:overlay;opacity:0.9"><g style="clip-path:url(#clip-path-3)"><g id="_12-2" data-name="12" style="mix-blend-mode:lighten;opacity:0.47000000000000003"><g style="clip-path:url(#clip-path-4)"><circle cx="182" cy="170.95" r="15.52" style="fill:#fdb017"/><path d="M147.13,94.11a15.59,15.59,0,1,1,15.59-15.59A15.59,15.59,0,0,1,147.13,94.11Z" style="fill:#fdb017"/><circle cx="106.49" cy="-11.48" r="15.66" style="fill:#fdb017"/><path d="M143.78,287a15.07,15.07,0,1,1,15.07-15.07A15.07,15.07,0,0,1,143.78,287Z" style="fill:#fdb017"/><path d="M111.33,195.07a15.13,15.13,0,1,1,15.13-15.13A15.13,15.13,0,0,1,111.33,195.07Z" style="fill:#fdb017"/><path d="M74.05,105a15.2,15.2,0,1,1,15.2-15.19A15.19,15.19,0,0,1,74.05,105Z" style="fill:#fdb017"/><circle cx="30.8" cy="2.37" r="15.26" transform="translate(16.82 29.92) rotate(-67.5)" style="fill:#fdb017"/><path d="M74.92,296.49A14.68,14.68,0,1,1,89.6,281.81,14.68,14.68,0,0,1,74.92,296.49Z" style="fill:#fdb017"/><path d="M40.41,206.62a14.74,14.74,0,1,1,14.74-14.74A14.74,14.74,0,0,1,40.41,206.62Z" style="fill:#fdb017"/><path d="M.87,118.84A14.8,14.8,0,1,1,15.67,104,14.8,14.8,0,0,1,.87,118.84Z" style="fill:#fdb017"/><path d="M566.44,3826.86a2.61,2.61,0,0,1-2.6-2.6h0a2.61,2.61,0,0,1,2.65-2.59h0a2.59,2.59,0,0,1,2.54,2.59h0a2.61,2.61,0,0,1-2.59,2.6Zm59.59-3a2.53,2.53,0,0,1,2.54-2.64h0a2.6,2.6,0,0,1,2.64,2.54h0a2.66,2.66,0,0,1-2.54,2.64h0A2.59,2.59,0,0,1,626,3823.9Zm-121.73,1.61a2.6,2.6,0,0,1-2.48-2.7h0a2.54,2.54,0,0,1,2.64-2.48h0A2.57,2.57,0,0,1,507,3823h0a2.58,2.58,0,0,1-2.6,2.49h-.05Zm183.86-3.68a2.59,2.59,0,0,1,2.48-2.7h0a2.61,2.61,0,0,1,2.7,2.49h0a2.61,2.61,0,0,1-2.44,2.7h-.15A2.61,2.61,0,0,1,688.16,3821.83Zm-245.93.36h0a2.51,2.51,0,0,1-2.39-2.74h0a2.57,2.57,0,0,1,2.75-2.39h0a2.56,2.56,0,0,1,2.38,2.75h0a2.65,2.65,0,0,1-2.59,2.44h0C442.33,3822.25,442.28,3822.19,442.23,3822.19Zm-61.93-5.28h0a2.65,2.65,0,0,1-2.33-2.85h0a2.6,2.6,0,0,1,2.85-2.28h0a2.57,2.57,0,0,1,2.33,2.84h0a2.67,2.67,0,0,1-2.59,2.34h0A.48.48,0,0,1,380.3,3816.91Zm-61.71-7.42a2.56,2.56,0,0,1-2.18-2.9h0a2.53,2.53,0,0,1,2.9-2.22h0a2.57,2.57,0,0,1,2.23,2.9h0a2.61,2.61,0,0,1-2.59,2.22h-.36Zm-61.36-9.68h0a2.67,2.67,0,0,1-2.12-3h0a2.58,2.58,0,0,1,3-2.07h0a2.54,2.54,0,0,1,2.13,2.95h0a2.65,2.65,0,0,1-2.59,2.18h0A1.21,1.21,0,0,1,257.23,3799.81Zm-61-12h0a2.6,2.6,0,0,1-2-3.1h0a2.63,2.63,0,0,1,3.12-2h0a2.6,2.6,0,0,1,2,3.12h0a2.61,2.61,0,0,1-2.54,2h0A1.88,1.88,0,0,1,196.24,3787.78Zm-60.42-14.5a2.55,2.55,0,0,1-1.81-3.17h0a2.56,2.56,0,0,1,3.16-1.86h0a2.6,2.6,0,0,1,1.81,3.16h0a2.58,2.58,0,0,1-2.48,2h0A3.19,3.19,0,0,1,135.82,3773.28Zm-59.74-17.05a2.59,2.59,0,0,1-1.71-3.22h0a2.51,2.51,0,0,1,3.21-1.71h0a2.58,2.58,0,0,1,1.76,3.22h0a2.59,2.59,0,0,1-2.49,1.81h0A2,2,0,0,1,76.08,3756.23Zm-59-19.64a2.6,2.6,0,0,1-1.56-3.32h0a2.55,2.55,0,0,1,3.32-1.55h0a2.54,2.54,0,0,1,1.55,3.31h0a2.56,2.56,0,0,1-2.43,1.72h0A2.73,2.73,0,0,1,17.11,3736.59Zm-58-22.34a2.51,2.51,0,0,1-1.4-3.36h0a2.61,2.61,0,0,1,3.37-1.41h0a2.59,2.59,0,0,1,1.4,3.38h0a2.51,2.51,0,0,1-2.38,1.6h0A2.18,2.18,0,0,1-40.88,3714.25Zm-56.9-25a2.52,2.52,0,0,1-1.24-3.42h0a2.54,2.54,0,0,1,3.42-1.25h0a2.53,2.53,0,0,1,1.24,3.42h0a2.55,2.55,0,0,1-2.32,1.51h0A2.94,2.94,0,0,1-97.78,3689.28Zm-55.65-27.67h0a2.55,2.55,0,0,1-1.09-3.48h0A2.54,2.54,0,0,1-151,3657h0a2.53,2.53,0,0,1,1.08,3.48h0a2.57,2.57,0,0,1-2.28,1.4h0A2.48,2.48,0,0,1-153.43,3661.61Zm-54.31-30.27h0a2.64,2.64,0,0,1-.93-3.57h0a2.63,2.63,0,0,1,3.58-.94h0a2.62,2.62,0,0,1,.93,3.58h0a2.6,2.6,0,0,1-2.28,1.25h0A3,3,0,0,1-207.74,3631.34Zm-52.75-32.9h0a2.6,2.6,0,0,1-.77-3.58h0a2.6,2.6,0,0,1,3.62-.72h0a2.58,2.58,0,0,1,.73,3.58h0a2.72,2.72,0,0,1-2.18,1.13h0A2.35,2.35,0,0,1-260.49,3598.44Zm-51.14-35.34a2.54,2.54,0,0,1-.57-3.63h0a2.57,2.57,0,0,1,3.58-.57h0a2.6,2.6,0,0,1,.62,3.63h0a2.74,2.74,0,0,1-2.13,1h0A2.7,2.7,0,0,1-311.63,3563.1Zm-49.64-37.83a2.62,2.62,0,0,1-.42-3.63h0a2.63,2.63,0,0,1,3.68-.41h0a2.56,2.56,0,0,1,.37,3.63h0a2.57,2.57,0,0,1-2,1h0A2.57,2.57,0,0,1-361.27,3525.27ZM-409,3485.32a2.6,2.6,0,0,1-.21-3.63h0a2.56,2.56,0,0,1,3.63-.26h0a2.56,2.56,0,0,1,.26,3.63h0a2.5,2.5,0,0,1-2,.88h0A2.81,2.81,0,0,1-409,3485.32Zm-45.8-41.87a2.61,2.61,0,0,1-.06-3.68h0a2.55,2.55,0,0,1,3.63-.1h0a2.61,2.61,0,0,1,.1,3.68h0a2.64,2.64,0,0,1-1.86.77h0A2.62,2.62,0,0,1-454.8,3443.45Zm-44.1-43.89h0a2.6,2.6,0,0,1,0-3.68h0a2.61,2.61,0,0,1,3.68.1h0a2.61,2.61,0,0,1-.05,3.63h0a2.78,2.78,0,0,1-1.82.72h0A2.61,2.61,0,0,1-498.9,3399.56Zm-42.34-45.6h0a2.56,2.56,0,0,1,.21-3.63h0a2.62,2.62,0,0,1,3.68.16h0a2.63,2.63,0,0,1-.26,3.68h0a2.42,2.42,0,0,1-1.71.67h0A2.65,2.65,0,0,1-541.24,3354Zm-40.57-47.16a2.54,2.54,0,0,1,.31-3.62h0a2.61,2.61,0,0,1,3.68.31h0a2.61,2.61,0,0,1-.37,3.63h0a2.55,2.55,0,0,1-1.65.62h0A2.45,2.45,0,0,1-581.81,3306.8Zm-38.92-48.55a2.56,2.56,0,0,1,.47-3.62h0a2.59,2.59,0,0,1,3.62.41h0a2.63,2.63,0,0,1-.46,3.68h0a2.59,2.59,0,0,1-1.56.52h0A2.76,2.76,0,0,1-620.73,3258.25ZM-658,3208.4h0a2.56,2.56,0,0,1,.57-3.57h0a2.57,2.57,0,0,1,3.63.51v.06a2.56,2.56,0,0,1-.57,3.57h0a2.47,2.47,0,0,1-1.56.52h0A2.53,2.53,0,0,1-658,3208.4Zm-35.75-50.93h0a2.53,2.53,0,0,1,.67-3.58h0a2.53,2.53,0,0,1,3.58.67h0a2.54,2.54,0,0,1-.67,3.58h0a2.46,2.46,0,0,1-1.46.46h0A2.59,2.59,0,0,1-693.79,3157.47Zm-34.36-51.93a2.59,2.59,0,0,1,.78-3.57h0a2.65,2.65,0,0,1,3.63.77h0a2.65,2.65,0,0,1-.78,3.58h0a2.49,2.49,0,0,1-1.45.42h0A2.63,2.63,0,0,1-728.15,3105.54Zm-33-52.8a2.58,2.58,0,0,1,.88-3.53h0a2.55,2.55,0,0,1,3.53.83h0a2.59,2.59,0,0,1-.83,3.58h0a2.48,2.48,0,0,1-1.34.36h0A2.52,2.52,0,0,1-761.11,3052.74Zm-31.71-53.53h0a2.56,2.56,0,0,1,.94-3.53h0a2.55,2.55,0,0,1,3.52.94h0a2.55,2.55,0,0,1-.93,3.52h0a2.36,2.36,0,0,1-1.3.37h0A2.58,2.58,0,0,1-792.82,2999.21Zm-30.57-54.2h0a2.55,2.55,0,0,1,1-3.53h0a2.55,2.55,0,0,1,3.53,1h0a2.56,2.56,0,0,1-1,3.52h0a2.22,2.22,0,0,1-1.24.32h0A2.62,2.62,0,0,1-823.39,2945Zm-29.54-54.82a2.54,2.54,0,0,1,1.09-3.48h0a2.6,2.6,0,0,1,3.52,1.09h0a2.62,2.62,0,0,1-1.08,3.47h0a2.74,2.74,0,0,1-1.24.31h0A2.59,2.59,0,0,1-852.93,2890.19Zm-28.6-55.29a2.6,2.6,0,0,1,1.19-3.48h0a2.56,2.56,0,0,1,3.47,1.14h0A2.64,2.64,0,0,1-878,2836h0a2.33,2.33,0,0,1-1.19.26h0A2.66,2.66,0,0,1-881.53,2834.9Zm-27.67-55.77v.06h0a2.56,2.56,0,0,1,1.19-3.48h0a2.57,2.57,0,0,1,3.47,1.2h0a2.63,2.63,0,0,1-1.19,3.42h0a2.51,2.51,0,0,1-1.14.31h0A2.54,2.54,0,0,1-909.2,2779.13Zm-27-56.06a2.66,2.66,0,0,1,1.24-3.47h0a2.62,2.62,0,0,1,3.48,1.24h0a2.61,2.61,0,0,1-1.25,3.47h0a2.61,2.61,0,0,1-1.09.21h0A2.63,2.63,0,0,1-936.2,2723.07Zm-26.27-56.43h0a2.56,2.56,0,0,1,1.3-3.42h0a2.55,2.55,0,0,1,3.41,1.24h0a2.68,2.68,0,0,1-1.29,3.47h0a2.36,2.36,0,0,1-1.09.21h0A2.62,2.62,0,0,1-962.47,2666.64Zm-25.7-56.69a2.58,2.58,0,0,1,1.29-3.42h0a2.58,2.58,0,0,1,3.42,1.35h0a2.55,2.55,0,0,1-1.3,3.37h0a2.79,2.79,0,0,1-1.08.25h0A2.52,2.52,0,0,1-988.17,2610Zm-25.19-56.69a2.6,2.6,0,0,1,1.35-3.42h0a2.61,2.61,0,0,1,3.42,1.29h0a2.56,2.56,0,0,1-1.35,3.42h0a2.28,2.28,0,0,1-1,.26h0A2.74,2.74,0,0,1-1013.36,2553.26Zm-24.77-57a2.61,2.61,0,0,1,1.35-3.42h0a2.62,2.62,0,0,1,3.42,1.35h0a2.62,2.62,0,0,1-1.35,3.42h0a2.53,2.53,0,0,1-1,.21h0A2.68,2.68,0,0,1-1038.13,2496.31Zm-24.5-57.15a2.58,2.58,0,0,1,1.39-3.42h0a2.54,2.54,0,0,1,3.37,1.39h0a2.57,2.57,0,0,1-1.34,3.37h0a2.45,2.45,0,0,1-1,.21h0A2.58,2.58,0,0,1-1062.63,2439.16Zm-24.31-57.32h0a2.52,2.52,0,0,1,1.4-3.36h0a2.57,2.57,0,0,1,3.37,1.34h0a2.62,2.62,0,0,1-1.35,3.42h0a3.37,3.37,0,0,1-1,.16h0A2.59,2.59,0,0,1-1086.94,2381.84Zm-24.2-57.41a2.69,2.69,0,0,1,1.4-3.42h0a2.69,2.69,0,0,1,3.42,1.4h0a2.62,2.62,0,0,1-1.4,3.37h0a2.55,2.55,0,0,1-1,.21h0A2.61,2.61,0,0,1-1111.14,2324.43Zm-24.15-57.52a2.54,2.54,0,0,1,1.4-3.37h0a2.56,2.56,0,0,1,3.37,1.35h0a2.6,2.6,0,0,1-1.35,3.42h0a3.78,3.78,0,0,1-1,.21h0A2.66,2.66,0,0,1-1135.29,2266.91Zm-24.2-57.57a2.54,2.54,0,0,1,1.41-3.37h0a2.54,2.54,0,0,1,3.36,1.4h0a2.55,2.55,0,0,1-1.35,3.37h0a2.53,2.53,0,0,1-1,.21h0A2.52,2.52,0,0,1-1159.49,2209.34Zm-24.25-57.26a2.59,2.59,0,0,1,1.4-3.42h0a2.55,2.55,0,0,1,3.37,1.4h0a2.57,2.57,0,0,1-1.34,3.37h0a2.6,2.6,0,0,1-1,.2h0A2.58,2.58,0,0,1-1183.74,2152.08Zm-24.4-57.21h0a2.63,2.63,0,0,1,1.39-3.42h0a2.56,2.56,0,0,1,3.37,1.35h.06a2.64,2.64,0,0,1-1.41,3.42h0a2.17,2.17,0,0,1-1,.21h0A2.52,2.52,0,0,1-1208.14,2094.87Zm-24.72-57.1a2.61,2.61,0,0,1,1.29-3.42h0a2.6,2.6,0,0,1,3.42,1.35h0a2.58,2.58,0,0,1-1.34,3.42h0a2.34,2.34,0,0,1-1,.2h0A2.54,2.54,0,0,1-1232.86,2037.77Zm-25.08-56.9a2.56,2.56,0,0,1,1.29-3.42h0a2.61,2.61,0,0,1,3.43,1.3h0a2.56,2.56,0,0,1-1.35,3.42h0a2.42,2.42,0,0,1-1,.26h0A2.51,2.51,0,0,1-1257.94,1980.87Zm-25.6-56.68a2.61,2.61,0,0,1,1.3-3.43h0a2.62,2.62,0,0,1,3.47,1.24h0a2.6,2.6,0,0,1-1.3,3.42h0a2.06,2.06,0,0,1-1.08.27h0A2.69,2.69,0,0,1-1283.54,1924.19Zm-26.06-56.44a2.59,2.59,0,0,1,1.24-3.47h0a2.54,2.54,0,0,1,3.42,1.24h0a2.63,2.63,0,0,1-1.24,3.48h0a2.83,2.83,0,0,1-1.09.2h0A2.48,2.48,0,0,1-1309.6,1867.75Zm-26.74-56.12h0a2.6,2.6,0,0,1,1.19-3.47h0a2.59,2.59,0,0,1,3.47,1.19h0a2.64,2.64,0,0,1-1.24,3.48h0a2.92,2.92,0,0,1-1.09.25h0A2.58,2.58,0,0,1-1336.34,1811.63Zm-27.52-55.75v-.05h0a2.64,2.64,0,0,1,1.19-3.48h0a2.64,2.64,0,0,1,3.48,1.19h0a2.65,2.65,0,0,1-1.14,3.47h0a3.26,3.26,0,0,1-1.2.27h0A2.67,2.67,0,0,1-1363.86,1755.88Zm-28.29-55.34h0a2.58,2.58,0,0,1,1.09-3.53h0a2.59,2.59,0,0,1,3.47,1.14h0a2.54,2.54,0,0,1-1.09,3.47h0a2.38,2.38,0,0,1-1.19.31h0A2.52,2.52,0,0,1-1392.15,1700.54Zm-29.28-54.83a2.59,2.59,0,0,1,1-3.53h0a2.64,2.64,0,0,1,3.52,1h0a2.63,2.63,0,0,1-1,3.53h0a2.71,2.71,0,0,1-1.24.31h0A2.55,2.55,0,0,1-1421.43,1645.71Zm-30.31-54.25a2.57,2.57,0,0,1,.93-3.53h0a2.67,2.67,0,0,1,3.57,1h0a2.6,2.6,0,0,1-1,3.52h0a2.81,2.81,0,0,1-1.29.36h0A2.52,2.52,0,0,1-1451.74,1591.46Zm-31.45-53.53a2.58,2.58,0,0,1,.83-3.58h0a2.65,2.65,0,0,1,3.57.88h0a2.61,2.61,0,0,1-.88,3.58h0a2.51,2.51,0,0,1-1.35.36h0A2.54,2.54,0,0,1-1483.19,1537.93Zm-32.76-52.81v.05h0a2.65,2.65,0,0,1,.78-3.62h0a2.57,2.57,0,0,1,3.58.83h0a2.59,2.59,0,0,1-.78,3.57h0a2.67,2.67,0,0,1-1.4.37h0A2.57,2.57,0,0,1-1515.95,1485.12Zm-34.09-51.86a2.58,2.58,0,0,1,.73-3.58h0a2.52,2.52,0,0,1,3.57.67h0a2.53,2.53,0,0,1-.67,3.58h0a2.69,2.69,0,0,1-1.46.46h0A2.7,2.7,0,0,1-1550,1433.26Zm-35.55-50.89h0a2.6,2.6,0,0,1,.62-3.63h0a2.54,2.54,0,0,1,3.58.62h0a2.57,2.57,0,0,1-.57,3.58h0a2.45,2.45,0,0,1-1.51.52h0A2.58,2.58,0,0,1-1585.59,1382.37Zm-37.1-49.75a2.57,2.57,0,0,1,.47-3.62h0a2.61,2.61,0,0,1,3.62.46h0a2.57,2.57,0,0,1-.46,3.63h0a2.54,2.54,0,0,1-1.56.57h0A2.62,2.62,0,0,1-1622.69,1332.62Zm-38.76-48.39a2.56,2.56,0,0,1,.36-3.63h0a2.56,2.56,0,0,1,3.63.31h0a2.63,2.63,0,0,1-.31,3.68h0a3,3,0,0,1-1.71.57h0A2.59,2.59,0,0,1-1661.45,1284.23Zm-40.63-47.11a2.62,2.62,0,0,1,.21-3.68h0a2.62,2.62,0,0,1,3.68.21h0a2.67,2.67,0,0,1-.21,3.68h0a2.82,2.82,0,0,1-1.76.62h0A2.61,2.61,0,0,1-1702.08,1237.12Zm-42.28-45.34a2.57,2.57,0,0,1,0-3.68h0a2.56,2.56,0,0,1,3.63.05h0a2.62,2.62,0,0,1,0,3.68h0a2.68,2.68,0,0,1-1.82.73h0A2.41,2.41,0,0,1-1744.36,1191.78Zm-44.05-43.43h0a2.59,2.59,0,0,1-.1-3.67h0a2.61,2.61,0,0,1,3.68-.11h0a2.65,2.65,0,0,1,.1,3.68h0a2.71,2.71,0,0,1-1.92.83h0A2.67,2.67,0,0,1-1788.41,1148.35Zm-46-41.5h0a2.56,2.56,0,0,1-.26-3.63h0a2.56,2.56,0,0,1,3.63-.31h0a2.67,2.67,0,0,1,.31,3.68h0a2.67,2.67,0,0,1-2,.88h0A2.61,2.61,0,0,1-1834.37,1106.85Zm-47.83-39.33h0a2.53,2.53,0,0,1-.41-3.63h0a2.57,2.57,0,0,1,3.63-.46h0a2.62,2.62,0,0,1,.41,3.62h0a2.51,2.51,0,0,1-2,1h0A2.68,2.68,0,0,1-1882.2,1067.52Zm-49.64-37a2.53,2.53,0,0,1-.62-3.57h0a2.58,2.58,0,0,1,3.63-.63h0a2.58,2.58,0,0,1,.62,3.58h0a2.59,2.59,0,0,1-2.13,1.09h0A2.71,2.71,0,0,1-1931.84,1030.52Zm-51.4-34.51a2.57,2.57,0,0,1-.78-3.58h0a2.59,2.59,0,0,1,3.57-.77h0a2.58,2.58,0,0,1,.78,3.57h0a2.48,2.48,0,0,1-2.17,1.2h0A2.43,2.43,0,0,1-1983.24,996Zm-53.07-31.87h0a2.58,2.58,0,0,1-1-3.52h0a2.52,2.52,0,0,1,3.52-1h0a2.61,2.61,0,0,1,1,3.53h0a2.61,2.61,0,0,1-2.28,1.29h0A2.6,2.6,0,0,1-2036.31,964.14ZM-2091,934.91a2.62,2.62,0,0,1-1.14-3.47h0a2.63,2.63,0,0,1,3.48-1.14h0a2.53,2.53,0,0,1,1.13,3.48h0a2.48,2.48,0,0,1-2.28,1.45h0A2.56,2.56,0,0,1-2091,934.91Zm-56.12-26.58a2.66,2.66,0,0,1-1.24-3.47h0a2.66,2.66,0,0,1,3.47-1.24h0a2.61,2.61,0,0,1,1.25,3.47h0a2.63,2.63,0,0,1-2.34,1.45h0A2.91,2.91,0,0,1-2147.15,908.33Zm-55.55-28.19a2.6,2.6,0,0,1-1-3.52h0a2.61,2.61,0,0,1,3.52-1h0a2.64,2.64,0,0,1,1,3.53h0a2.59,2.59,0,0,1-2.28,1.34h0A2.75,2.75,0,0,1-2202.7,880.14Zm-54-31a2.63,2.63,0,0,1-.88-3.58h0a2.59,2.59,0,0,1,3.57-.88h0a2.66,2.66,0,0,1,.89,3.57h0a2.7,2.7,0,0,1-2.23,1.25h0A2.6,2.6,0,0,1-2256.69,849.11Zm-52.44-33.64a2.54,2.54,0,0,1-.73-3.57h0a2.61,2.61,0,0,1,3.58-.73h0a2.6,2.6,0,0,1,.72,3.58h0a2.59,2.59,0,0,1-2.17,1.19h0A2.38,2.38,0,0,1-2309.13,815.47Zm-51-35.85h0a2.59,2.59,0,0,1-.57-3.63h0a2.58,2.58,0,0,1,3.63-.52h0a2.57,2.57,0,0,1,.57,3.58h0a2.64,2.64,0,0,1-2.13,1.08h0A2.57,2.57,0,0,1-2360.12,779.62Zm-49.43-37.83a2.62,2.62,0,0,1-.42-3.68h0a2.61,2.61,0,0,1,3.63-.41h0a2.56,2.56,0,0,1,.41,3.62h0a2.48,2.48,0,0,1-2,1h0A2.58,2.58,0,0,1-2409.55,741.79Zm-48-39.64a2.62,2.62,0,0,1-.31-3.68h0a2.62,2.62,0,0,1,3.68-.26v-.05a2.61,2.61,0,0,1,.26,3.67h0a2.49,2.49,0,0,1-2,.89h0A2.52,2.52,0,0,1-2457.59,702.15Zm-46.69-41.25a2.62,2.62,0,0,1-.15-3.68h0a2.55,2.55,0,0,1,3.67-.15h0a2.59,2.59,0,0,1,.16,3.67h0a2.8,2.8,0,0,1-1.92.83h0A2.9,2.9,0,0,1-2504.28,660.9Zm-45.34-42.7a2.6,2.6,0,0,1-.05-3.68h0a2.62,2.62,0,0,1,3.68,0h0a2.62,2.62,0,0,1,0,3.68h0a2.63,2.63,0,0,1-1.87.78h0A2.67,2.67,0,0,1-2549.62,618.2Zm-44.05-44a2.57,2.57,0,0,1,.06-3.68h0a2.59,2.59,0,0,1,3.67.05h0a2.5,2.5,0,0,1-.05,3.63h0a2.38,2.38,0,0,1-1.76.77h0A2.62,2.62,0,0,1-2593.67,574.21ZM-2636.52,529a2.6,2.6,0,0,1,.16-3.63h0a2.6,2.6,0,0,1,3.67.11h0a2.65,2.65,0,0,1-.15,3.68h0a2.63,2.63,0,0,1-1.76.67h0A2.59,2.59,0,0,1-2636.52,529Zm-41.61-46.27a2.62,2.62,0,0,1,.26-3.68h0a2.55,2.55,0,0,1,3.63.26h0a2.55,2.55,0,0,1-.26,3.62h0a2.59,2.59,0,0,1-1.66.68h0A2.67,2.67,0,0,1-2678.13,482.7Zm-40.47-47.37a2.51,2.51,0,0,1,.36-3.62h0a2.55,2.55,0,0,1,3.63.31h0a2.56,2.56,0,0,1-.31,3.63h0a2.66,2.66,0,0,1-1.66.61h0A2.55,2.55,0,0,1-2718.6,435.33Zm-39.33-48.24a2.67,2.67,0,0,1,.41-3.68h0a2.61,2.61,0,0,1,3.63.42h0a2.63,2.63,0,0,1-.36,3.68h0a2.87,2.87,0,0,1-1.66.51h0A2.67,2.67,0,0,1-2757.93,387.09Zm-38.19-49.18a2.57,2.57,0,0,1,.46-3.62h0a2.53,2.53,0,0,1,3.63.52h0a2.56,2.56,0,0,1-.46,3.62h0a3,3,0,0,1-1.61.52h0A2.43,2.43,0,0,1-2796.12,337.91Zm-37.15-50a2.63,2.63,0,0,1,.56-3.63h0a2.63,2.63,0,0,1,3.63.57h0a2.63,2.63,0,0,1-.57,3.63h0a2.68,2.68,0,0,1-1.5.47h0A2.61,2.61,0,0,1-2833.27,288Zm-36.07-50.78h0a2.57,2.57,0,0,1,.62-3.58h0a2.63,2.63,0,0,1,3.63.63h0a2.62,2.62,0,0,1-.62,3.62h0a2.74,2.74,0,0,1-1.51.47h0A2.63,2.63,0,0,1-2869.34,237.18Zm-35-51.46a2.57,2.57,0,0,1,.73-3.57h0a2.57,2.57,0,0,1,3.57.72h0a2.54,2.54,0,0,1-.73,3.58h0a2.31,2.31,0,0,1-1.39.41h0A2.5,2.5,0,0,1-2904.37,185.72Zm-34-52.13a2.56,2.56,0,0,1,.78-3.57h0a2.52,2.52,0,0,1,3.57.78h0a2.58,2.58,0,0,1-.78,3.57h0a2.59,2.59,0,0,1-1.4.42h0A2.73,2.73,0,0,1-2938.36,133.59Zm-33-52.85a2.53,2.53,0,0,1,.83-3.52h0a2.59,2.59,0,0,1,3.58.82h0a2.64,2.64,0,0,1-.83,3.58h0a2.79,2.79,0,0,1-1.35.36h0A2.52,2.52,0,0,1-2971.32,80.74Zm-32-53.37a2.62,2.62,0,0,1,.93-3.58h0a2.56,2.56,0,0,1,3.52.93h0a2.55,2.55,0,0,1-.93,3.53h0a2.21,2.21,0,0,1-1.29.36h0A2.63,2.63,0,0,1-3003.29,27.37Zm-30.94-54h0a2.57,2.57,0,0,1,1-3.53h0a2.57,2.57,0,0,1,3.52,1h0a2.55,2.55,0,0,1-1,3.52h0a2.31,2.31,0,0,1-1.25.37h0A2.64,2.64,0,0,1-3034.23-26.68Zm-29.95-54.56a2.61,2.61,0,0,1,1-3.53h0a2.58,2.58,0,0,1,3.52,1.09v0a2.61,2.61,0,0,1-1,3.52h0a2.75,2.75,0,0,1-1.25.31h0A2.54,2.54,0,0,1-3064.18-81.24Zm-28.91-55.14a2.56,2.56,0,0,1,1.08-3.47h0a2.63,2.63,0,0,1,3.53,1.09h0a2.65,2.65,0,0,1-1.14,3.52h0a2.33,2.33,0,0,1-1.19.26h0A2.58,2.58,0,0,1-3093.09-136.38Zm-27.83-55.45a2.58,2.58,0,0,1,1.14-3.47h0a2.59,2.59,0,0,1,3.47,1.19h0a2.6,2.6,0,0,1-1.19,3.47h0a2.77,2.77,0,0,1-1.14.27h0A2.48,2.48,0,0,1-3120.92-191.83Zm-26.89-56a2.58,2.58,0,0,1,1.24-3.42h0a2.61,2.61,0,0,1,3.47,1.24h0a2.54,2.54,0,0,1-1.24,3.42h0a2.09,2.09,0,0,1-1.09.26h0A2.68,2.68,0,0,1-3147.81-247.84Zm-25.86-56.48a2.58,2.58,0,0,1,1.35-3.42h0a2.62,2.62,0,0,1,3.42,1.29h0a2.58,2.58,0,0,1-1.35,3.42h0a2.29,2.29,0,0,1-1,.26h0A2.65,2.65,0,0,1-3173.67-304.32Zm-24.82-57a2.62,2.62,0,0,1,1.34-3.41h0a2.64,2.64,0,0,1,3.43,1.4h0a2.56,2.56,0,0,1-1.35,3.36h0a2.42,2.42,0,0,1-1,.21h0A2.58,2.58,0,0,1-3198.49-361.33Zm-23.84-57.46h0a2.58,2.58,0,0,1,1.45-3.37h0a2.55,2.55,0,0,1,3.37,1.4h0a2.65,2.65,0,0,1-1.45,3.42h0a3,3,0,0,1-.93.16h0A2.67,2.67,0,0,1-3222.33-418.79Zm-22.75-57.94a2.6,2.6,0,0,1,1.51-3.36h0a2.52,2.52,0,0,1,3.31,1.5h0a2.6,2.6,0,0,1-1.5,3.37h0a2.5,2.5,0,0,1-.88.15h0A2.63,2.63,0,0,1-3245.08-476.73Zm-21.71-58.39a2.61,2.61,0,0,1,1.56-3.32h0a2.59,2.59,0,0,1,3.31,1.55h0a2.56,2.56,0,0,1-1.55,3.32h0a2.73,2.73,0,0,1-.88.16h0A2.69,2.69,0,0,1-3266.79-535.12Zm-20.62-58.82a2.56,2.56,0,0,1,1.6-3.26h0a2.61,2.61,0,0,1,3.32,1.6h0a2.62,2.62,0,0,1-1.61,3.32h0a5.33,5.33,0,0,1-.83.1h0A2.61,2.61,0,0,1-3287.41-593.94Zm-19.49-59.23a2.52,2.52,0,0,1,1.66-3.21h0a2.6,2.6,0,0,1,3.27,1.66h0a2.63,2.63,0,0,1-1.71,3.26h0a1.92,1.92,0,0,1-.78.11h0A2.5,2.5,0,0,1-3306.9-653.17Zm-18.39-59.59a2.6,2.6,0,0,1,1.76-3.26h0a2.65,2.65,0,0,1,3.21,1.76h0a2.52,2.52,0,0,1-1.76,3.21h0a1.72,1.72,0,0,1-.73.16h0A2.66,2.66,0,0,1-3325.29-712.76Zm-17.21-60a2.64,2.64,0,0,1,1.82-3.22h0a2.59,2.59,0,0,1,3.16,1.82h0a2.6,2.6,0,0,1-1.76,3.21h0a3.59,3.59,0,0,1-.73.05h0A2.56,2.56,0,0,1-3342.5-772.76Zm-16-60.37h-.05a2.65,2.65,0,0,1,1.92-3.16h0a2.52,2.52,0,0,1,3.11,1.86h0a2.58,2.58,0,0,1-1.87,3.16h0a2.14,2.14,0,0,1-.62.06h0A2.52,2.52,0,0,1-3358.46-833.13Zm-14.71-60.53h0a2.55,2.55,0,0,1,1.91-3.11h0a2.62,2.62,0,0,1,3.11,2h0a2.58,2.58,0,0,1-1.91,3.11h0a2.64,2.64,0,0,1-.62.05h0A2.54,2.54,0,0,1-3373.17-893.66Zm-13.42-60.78a2.55,2.55,0,0,1,2-3.06h0a2.63,2.63,0,0,1,3.1,2h0a2.62,2.62,0,0,1-2,3.05h0a2,2,0,0,1-.51,0h0A2.59,2.59,0,0,1-3386.59-954.44Zm-12.13-61a2.64,2.64,0,0,1,2.07-3.06h0a2.59,2.59,0,0,1,3,2.07h0a2.6,2.6,0,0,1-2.07,3.06h0c-.16,0-.26,0-.42,0h0A2.66,2.66,0,0,1-3398.72-1015.48Zm-10.72-61.36a2.57,2.57,0,0,1,2.12-3h0a2.62,2.62,0,0,1,3,2.13h0a2.65,2.65,0,0,1-2.17,3h-.42A2.55,2.55,0,0,1-3409.44-1076.84Zm-9.33-61.5a2.63,2.63,0,0,1,2.23-3h0a2.57,2.57,0,0,1,2.9,2.23h0a2.56,2.56,0,0,1-2.18,2.9h0a1,1,0,0,1-.36.05h0A2.61,2.61,0,0,1-3418.77-1138.34Zm-7.83-61.77a2.59,2.59,0,0,1,2.28-2.9h0a2.6,2.6,0,0,1,2.85,2.28h0a2.59,2.59,0,0,1-2.28,2.9h-.31A2.58,2.58,0,0,1-3426.6-1200.11Zm-6.32-62a2.59,2.59,0,0,1,2.33-2.79h0a2.57,2.57,0,0,1,2.8,2.38h0a2.56,2.56,0,0,1-2.33,2.8h-.21A2.6,2.6,0,0,1-3432.92-1262.09Zm-4.71-62.08a2.51,2.51,0,0,1,2.38-2.69h0a2.62,2.62,0,0,1,2.8,2.39h0a2.61,2.61,0,0,1-2.44,2.74h-.15A2.53,2.53,0,0,1-3437.63-1324.17Zm-3.11-62.12v-.06h0a2.62,2.62,0,0,1,2.53-2.64h0a2.56,2.56,0,0,1,2.65,2.49h0a2.57,2.57,0,0,1-2.49,2.69h-.1A2.61,2.61,0,0,1-3440.74-1386.29Zm-1.3-62.34a2.52,2.52,0,0,1,2.54-2.59h0a2.57,2.57,0,0,1,2.59,2.59h0a2.55,2.55,0,0,1-2.54,2.59h-.05A2.55,2.55,0,0,1-3442-1448.63Zm2.95-59.6a2.52,2.52,0,0,1-2.53-2.64h0a2.63,2.63,0,0,1,2.64-2.54h0a2.61,2.61,0,0,1,2.54,2.65h0a2.58,2.58,0,0,1-2.59,2.53h-.06Zm2.23-62.12a2.64,2.64,0,0,1-2.43-2.75h0a2.61,2.61,0,0,1,2.74-2.44h0a2.65,2.65,0,0,1,2.44,2.75h0a2.65,2.65,0,0,1-2.59,2.44h-.16Zm4.2-62a2.59,2.59,0,0,1-2.33-2.8h0a2.57,2.57,0,0,1,2.8-2.38h0a2.63,2.63,0,0,1,2.33,2.79h0a2.59,2.59,0,0,1-2.54,2.39h-.26Zm6.22-61.87a2.53,2.53,0,0,1-2.23-2.85h0a2.57,2.57,0,0,1,2.85-2.28h0a2.6,2.6,0,0,1,2.28,2.85h0a2.58,2.58,0,0,1-2.59,2.28h-.31Zm8.34-61.61a2.63,2.63,0,0,1-2.18-3h0a2.67,2.67,0,0,1,3-2.17h0a2.58,2.58,0,0,1,2.13,3h0a2.62,2.62,0,0,1-2.55,2.23h0C-3417.84-1755.81-3417.94-1755.86-3418.1-1755.86Zm10.52-61.25a2.57,2.57,0,0,1-2-3.06h0a2.51,2.51,0,0,1,3-2h0a2.58,2.58,0,0,1,2.08,3h0a2.65,2.65,0,0,1-2.54,2.13h0C-3407.22-1817.06-3407.37-1817.11-3407.58-1817.11Zm12.85-60.84a2.61,2.61,0,0,1-2-3.11h0a2.61,2.61,0,0,1,3.11-2h0a2.66,2.66,0,0,1,2,3.11v.05a2.59,2.59,0,0,1-2.54,2h0A2,2,0,0,1-3394.73-1877.95Zm15.13-60.26a2.69,2.69,0,0,1-1.81-3.22h0a2.67,2.67,0,0,1,3.21-1.81h0a2.67,2.67,0,0,1,1.82,3.21h0a2.57,2.57,0,0,1-2.49,1.87h0A3.59,3.59,0,0,1-3379.6-1938.21Zm17.67-59.8a2.56,2.56,0,0,1-1.66-3.27h0a2.57,2.57,0,0,1,3.22-1.65h0a2.6,2.6,0,0,1,1.71,3.26h0a2.66,2.66,0,0,1-2.49,1.81h0A2.16,2.16,0,0,1-3361.93-1998Zm20.11-58.92a2.58,2.58,0,0,1-1.51-3.32h0a2.6,2.6,0,0,1,3.32-1.55h0a2.62,2.62,0,0,1,1.56,3.31h0a2.6,2.6,0,0,1-2.44,1.71h0A3,3,0,0,1-3341.82-2056.93Zm22.69-57.93a2.69,2.69,0,0,1-1.4-3.42h0a2.62,2.62,0,0,1,3.43-1.35h0a2.55,2.55,0,0,1,1.34,3.37h0a2.52,2.52,0,0,1-2.38,1.6h0A2.34,2.34,0,0,1-3319.13-2114.86Zm25.24-56.8a2.58,2.58,0,0,1-1.19-3.47h0a2.58,2.58,0,0,1,3.42-1.24h0a2.61,2.61,0,0,1,1.24,3.47h0a2.66,2.66,0,0,1-2.33,1.5h0A2.76,2.76,0,0,1-3293.89-2171.66Zm27.83-55.49a2.62,2.62,0,0,1-1-3.53h0a2.56,2.56,0,0,1,3.47-1h0a2.53,2.53,0,0,1,1.09,3.47h0a2.59,2.59,0,0,1-2.28,1.4h0A2.84,2.84,0,0,1-3266.06-2227.15Zm30.42-54a2.57,2.57,0,0,1-.89-3.58h0a2.6,2.6,0,0,1,3.53-.88h0a2.57,2.57,0,0,1,.88,3.53h0a2.59,2.59,0,0,1-2.23,1.29h0A2.43,2.43,0,0,1-3235.64-2281.2Zm33-52.65a2.54,2.54,0,0,1-.72-3.58h0a2.57,2.57,0,0,1,3.57-.72h0a2.65,2.65,0,0,1,.73,3.63h0a2.73,2.73,0,0,1-2.18,1.14h0A2.43,2.43,0,0,1-3202.59-2333.85Zm35.55-50.88a2.63,2.63,0,0,1-.52-3.63h0a2.58,2.58,0,0,1,3.63-.52h0a2.57,2.57,0,0,1,.52,3.63h0a2.5,2.5,0,0,1-2.07,1h0A2.58,2.58,0,0,1-3167-2384.73Zm38.09-49.08a2.59,2.59,0,0,1-.36-3.62h0a2.58,2.58,0,0,1,3.68-.37h0a2.62,2.62,0,0,1,.36,3.63h0a2.67,2.67,0,0,1-2,.93h0A2.56,2.56,0,0,1-3128.95-2433.81Zm40.52-47.1a2.62,2.62,0,0,1-.21-3.68h0a2.61,2.61,0,0,1,3.68-.15h0a2.54,2.54,0,0,1,.16,3.62h0a2.58,2.58,0,0,1-1.92.89h0A2.67,2.67,0,0,1-3088.43-2480.91Zm42.75-45a2.58,2.58,0,0,1,0-3.68h0a2.58,2.58,0,0,1,3.68,0h0a2.67,2.67,0,0,1,0,3.68h0a2.8,2.8,0,0,1-1.87.73h0A2.67,2.67,0,0,1-3045.68-2525.94Zm44.93-42.9a2.63,2.63,0,0,1,.2-3.68h0a2.56,2.56,0,0,1,3.63.2h0a2.62,2.62,0,0,1-.15,3.68h0a2.79,2.79,0,0,1-1.77.62h0A2.62,2.62,0,0,1-3000.75-2568.84Zm46.94-40.68a2.62,2.62,0,0,1,.37-3.63h0a2.68,2.68,0,0,1,3.68.36h0a2.61,2.61,0,0,1-.37,3.63h0a2.53,2.53,0,0,1-1.65.62h0A2.73,2.73,0,0,1-2953.81-2609.52Zm48.87-38.35a2.58,2.58,0,0,1,.52-3.63h0a2.56,2.56,0,0,1,3.62.52h0a2.57,2.57,0,0,1-.51,3.63h0a2.59,2.59,0,0,1-1.56.52h0A2.65,2.65,0,0,1-2904.94-2647.87Zm50.57-36.06a2.61,2.61,0,0,1,.68-3.63h0a2.56,2.56,0,0,1,3.57.67h0a2.6,2.6,0,0,1-.67,3.63h0a2.48,2.48,0,0,1-1.45.41h0A2.51,2.51,0,0,1-2854.37-2683.93Zm52.13-33.79a2.59,2.59,0,0,1,.83-3.57h0a2.6,2.6,0,0,1,3.58.82h0a2.65,2.65,0,0,1-.83,3.58h0a2.81,2.81,0,0,1-1.4.36h0A2.5,2.5,0,0,1-2802.24-2717.72Zm53.53-31.51a2.55,2.55,0,0,1,1-3.52h0a2.56,2.56,0,0,1,3.52,1h0a2.58,2.58,0,0,1-1,3.53h0a2.75,2.75,0,0,1-1.25.31h0A2.6,2.6,0,0,1-2748.71-2749.23Zm54.83-29.27a2.52,2.52,0,0,1,1.14-3.47h0a2.55,2.55,0,0,1,3.47,1.13h0a2.63,2.63,0,0,1-1.14,3.48h0a2.44,2.44,0,0,1-1.19.26h0A2.43,2.43,0,0,1-2693.88-2778.5Zm55.91-27.05a2.54,2.54,0,0,1,1.24-3.42h0a2.63,2.63,0,0,1,3.48,1.24h0a2.67,2.67,0,0,1-1.3,3.47h0a2.64,2.64,0,0,1-1.09.21h0A2.55,2.55,0,0,1-2638-2805.55Zm56.9-24.93a2.62,2.62,0,0,1,1.39-3.37h0a2.66,2.66,0,0,1,3.43,1.4h0a2.59,2.59,0,0,1-1.46,3.37h0a2,2,0,0,1-1,.21h0A2.54,2.54,0,0,1-2581.07-2830.48Zm57.77-22.8a2.6,2.6,0,0,1,1.56-3.31h0a2.54,2.54,0,0,1,3.31,1.5h0a2.55,2.55,0,0,1-1.5,3.32h0a3,3,0,0,1-.93.15h0A2.63,2.63,0,0,1-2523.3-2853.28Zm58.56-20.83a2.53,2.53,0,0,1,1.66-3.26h0a2.57,2.57,0,0,1,3.26,1.6h0a2.6,2.6,0,0,1-1.66,3.27h0a2.15,2.15,0,0,1-.77.15h0A2.61,2.61,0,0,1-2464.74-2874.11Zm59.18-18.91a2.58,2.58,0,0,1,1.76-3.22h0a2.59,2.59,0,0,1,3.21,1.72h0a2.55,2.55,0,0,1-1.71,3.21h0a1.73,1.73,0,0,1-.73.15h0A2.62,2.62,0,0,1-2405.56-2893Zm59.79-17.05a2.51,2.51,0,0,1,1.82-3.16h0a2.58,2.58,0,0,1,3.16,1.81h0a2.59,2.59,0,0,1-1.82,3.16h0a1.52,1.52,0,0,1-.67.11h0A2.56,2.56,0,0,1-2345.77-2910.07Zm60.22-15.29a2.51,2.51,0,0,1,1.91-3.1h0a2.53,2.53,0,0,1,3.11,1.91h0a2.58,2.58,0,0,1-1.91,3.11h0a2.44,2.44,0,0,1-.57.05h0A2.56,2.56,0,0,1-2285.55-2925.36Zm60.62-13.57a2.65,2.65,0,0,1,2-3.11h0a2.62,2.62,0,0,1,3.05,2h0a2.57,2.57,0,0,1-2,3.06h0a1.8,1.8,0,0,1-.52.05h0A2.61,2.61,0,0,1-2224.93-2938.93Zm61-12a2.6,2.6,0,0,1,2.08-3h0a2.58,2.58,0,0,1,3,2.07h0a2.64,2.64,0,0,1-2.07,3.06h-.47A2.57,2.57,0,0,1-2163.94-2951Zm61.25-10.41a2.57,2.57,0,0,1,2.18-3h0a2.58,2.58,0,0,1,3,2.13h0a2.58,2.58,0,0,1-2.17,2.95h0a.91.91,0,0,1-.42.06h0A2.62,2.62,0,0,1-2102.69-2961.37Zm61.51-9a2.57,2.57,0,0,1,2.23-2.9h0a2.6,2.6,0,0,1,2.9,2.23h0a2.61,2.61,0,0,1-2.23,2.9h0a.76.76,0,0,1-.36,0h0A2.57,2.57,0,0,1-2041.18-2970.39Zm61.67-7.56a2.57,2.57,0,0,1,2.28-2.85h0a2.65,2.65,0,0,1,2.9,2.28h0a2.61,2.61,0,0,1-2.33,2.85h-.26A2.57,2.57,0,0,1-1979.51-2977.95Zm747.11-.57a2.59,2.59,0,0,1-2.38-2.8h0a2.56,2.56,0,0,1,2.8-2.33h0a2.57,2.57,0,0,1,2.38,2.79h0a2.55,2.55,0,0,1-2.59,2.34h-.21Zm-685.3-5.7a2.61,2.61,0,0,1,2.39-2.8h0a2.56,2.56,0,0,1,2.8,2.33h0a2.54,2.54,0,0,1-2.33,2.8h0a.52.52,0,0,1-.27,0h0A2.67,2.67,0,0,1-1917.7-2984.22Zm623.38.83a2.6,2.6,0,0,1-2.43-2.75h0a2.6,2.6,0,0,1,2.79-2.43h0v.05h0a2.53,2.53,0,0,1,2.39,2.74h0a2.6,2.6,0,0,1-2.59,2.39h-.16Zm-561.4-5.81a2.62,2.62,0,0,1,2.39-2.8h0a2.6,2.6,0,0,1,2.74,2.44h0a2.6,2.6,0,0,1-2.43,2.75h-.16A2.6,2.6,0,0,1-1855.72-2989.2Zm499.37,1.71a2.6,2.6,0,0,1-2.43-2.74h0a2.61,2.61,0,0,1,2.75-2.39h0a2.52,2.52,0,0,1,2.43,2.7h0a2.53,2.53,0,0,1-2.59,2.43h-.16Zm-437.34-5.54a2.64,2.64,0,0,1,2.48-2.7h0a2.59,2.59,0,0,1,2.7,2.44h0a2.59,2.59,0,0,1-2.44,2.75h-.15A2.65,2.65,0,0,1-1793.69-2993Zm375.32,2.33a2.64,2.64,0,0,1-2.49-2.69h0a2.66,2.66,0,0,1,2.75-2.49h0a2.53,2.53,0,0,1,2.44,2.69h0a2.58,2.58,0,0,1-2.54,2.49h-.16Zm-62.08-2.38a2.61,2.61,0,0,1-2.49-2.7h0a2.56,2.56,0,0,1,2.64-2.49h0a2.58,2.58,0,0,1,2.55,2.65h0a2.63,2.63,0,0,1-2.6,2.54h-.1Zm-251.11-2.54a2.61,2.61,0,0,1,2.49-2.7h0a2.6,2.6,0,0,1,2.69,2.49h0a2.62,2.62,0,0,1-2.49,2.7h-.1A2.58,2.58,0,0,1-1731.56-2995.62Zm189,1h0a2.57,2.57,0,0,1-2.54-2.64h0a2.59,2.59,0,0,1,2.59-2.54h0a2.61,2.61,0,0,1,2.59,2.65h0a2.62,2.62,0,0,1-2.59,2.53h0Zm-126.9-2.59a2.61,2.61,0,0,1,2.59-2.64h0a2.52,2.52,0,0,1,2.59,2.54h0a2.57,2.57,0,0,1-2.54,2.64h0A2.62,2.62,0,0,1-1669.43-2997.18Zm64.77,2.07a2.6,2.6,0,0,1-2.59-2.59h0a2.57,2.57,0,0,1,2.59-2.59h0a2.57,2.57,0,0,1,2.59,2.59h0a2.55,2.55,0,0,1-2.53,2.59h-.06Z" style="fill:#fdb017"/></g></g></g></g><g style="mix-blend-mode:overlay;opacity:0.9"><g style="clip-path:url(#clip-path-5)"><g id="_12-3" data-name="12" style="mix-blend-mode:lighten;opacity:0.47000000000000003"><g style="clip-path:url(#clip-path-6)"><circle cx="176.04" cy="40.11" r="19.35" style="fill:#fdb017"/><circle cx="206.72" cy="217.49" r="17.98" style="fill:#fdb017"/><circle cx="134.82" cy="116.34" r="19.01" style="fill:#fdb017"/><path d="M85.53,22.33a20,20,0,1,1,20-20A20,20,0,0,1,85.53,22.33Z" style="fill:#fdb017"/><path d="M169.36,307.59a17.69,17.69,0,1,1,17.7-17.69A17.69,17.69,0,0,1,169.36,307.59Z" style="fill:#fdb017"/><circle cx="94.74" cy="192.24" r="18.67" style="fill:#fdb017"/><circle cx="41.68" cy="81.33" r="19.61" transform="translate(-47.06 103.21) rotate(-76.72)" style="fill:#fdb017"/><circle cx="55.73" cy="267.84" r="18.33" style="fill:#fdb017"/><path d="M-.83,179.3a19.25,19.25,0,0,1-19.25-19.25A19.25,19.25,0,0,1-.83,140.79a19.26,19.26,0,0,1,19.26,19.26A19.25,19.25,0,0,1-.83,179.3Z" style="fill:#fdb017"/></g></g></g></g><g id="Air_Supply" data-name="Air Supply"><path d="M160.12,92.27l0,.89h26.36l.43,0,.55,0h4.39l0-.94A96.54,96.54,0,0,0,127.71,5.41l-.9,1.53C146.54,24.07,159.31,56.74,160.12,92.27Z" style="fill:#1483f7"/><path d="M122.43,92.27v.89H154.5v-.89c-1-43.62-19.85-80.64-45.92-90l-2.3-.81,1.24,2.13C116.38,18.91,122.13,52.91,122.43,92.27Z" style="fill:#edf1f4"/><path d="M75,93.16H116.8v-.89C116.38,37.87,105.47,0,95.93,0S75.48,37.87,75.06,92.27Zm-66.53,0,.59,0H31.74l0-.89C32.59,56.74,45.37,24,65.13,6.9l-.89-1.53A96.61,96.61,0,0,0,0,92.22l0,.94H8Z" style="fill:#1483f7"/><path d="M37.36,93.16h32v-.89c.34-39.36,6-73.36,14.91-88.73l1.24-2.13-2.3.81c-26,9.41-44.9,46.43-45.88,90Zm3,172.44a7,7,0,0,0,7,7H148.15a6.9,6.9,0,0,0,6.9-6.94V242H40.38Z" style="fill:#edf1f4"/><rect x="40.38" y="222.32" width="114.67" height="14.01" style="fill:#1483f7"/><path d="M139.55,186H47.37a7,7,0,0,0-7,7v23.68H155.05V201.57A15.54,15.54,0,0,0,139.55,186ZM62.28,173v7.37H133.2V173a4.31,4.31,0,0,0-4.3-4.3H66.58A4.34,4.34,0,0,0,62.28,173Z" style="fill:#1483f7"/><polygon points="45.75 98.74 76.04 163.19 86.17 163.19 55.89 98.74 45.75 98.74" style="fill:#106aad"/><path d="M62.58,164a9.66,9.66,0,0,1,4-.85h6.56L17.21,98.74H5.07L62,164.34Zm59.85-.85h6.51A10.36,10.36,0,0,1,133,164l.6.26,56.86-65.56H178.31Z" style="fill:#106aad"/><polygon points="139.68 98.74 109.35 163.19 119.53 163.19 149.81 98.74 139.68 98.74" style="fill:#106aad"/></g></g></g></svg>
