<svg id="a0df7efa-e011-45d9-8210-918aec496ab4" data-name="Layer 1" xmlns="http://www.w3.org/2000/svg" viewBox="0 0 476.7 121.33"><g id="be9b88dc-e7af-47f6-b3bd-aa6be3c7ff46" data-name="bscscan-logo"><g id="f44876ed-3cd6-4882-be8e-8b75cd0dcd5f" data-name="bscscan-logo-circle"><path id="a9505683-6e21-49ef-a204-eb6abf8c0840" data-name="Path 1" d="M25.22,57.77a5.16,5.16,0,0,1,5.15-5.15h0l8.57,0a5.16,5.16,0,0,1,5.15,5.15h0V90.2c1-.28,2.2-.59,3.56-.91A4.29,4.29,0,0,0,51,85.11V44.93a5.16,5.16,0,0,1,5.15-5.16h8.59a5.16,5.16,0,0,1,5.15,5.16v37.3s2.15-.87,4.25-1.76a4.29,4.29,0,0,0,2.62-4V32.05a5.15,5.15,0,0,1,5.15-5.15h8.59a5.15,5.15,0,0,1,5.14,5.15V68.67c7.44-5.4,15-11.89,21-19.69a8.63,8.63,0,0,0,1.32-8.07A60.64,60.64,0,1,0,8.05,91a7.68,7.68,0,0,0,7.32,3.79c1.62-.14,3.65-.35,6.05-.63a4.29,4.29,0,0,0,3.81-4.26V57.77" style="fill:#12161c"/><path id="b18a9ceb-95c1-4be9-8866-725b5ed6d137" data-name="Path 2" d="M25,109.73a60.66,60.66,0,0,0,96.34-49.06c0-1.4-.07-2.78-.16-4.16C99.06,89.57,58.14,105,25,109.73" style="fill:#f0b90b"/></g><path id="b2b6584e-ad14-449d-8544-f4f15a9f6c49" data-name="Path 87" d="M173.58,59.55a13.9,13.9,0,0,1,8.28,4.88,13.68,13.68,0,0,1,3.16,9q0,7-4.72,11.16t-13.68,4.12H144.14V32.19h22.08q8.49,0,13,3.8t4.52,10.44a13,13,0,0,1-2.8,8.68A13.67,13.67,0,0,1,173.58,59.55Zm-20.32-3h11.28q4.8,0,7.32-2.24A7.92,7.92,0,0,0,174.38,48a7.79,7.79,0,0,0-2.52-6.16c-1.68-1.5-4.22-2.24-7.64-2.24h-11Zm11.52,24.64q5.21,0,8-2.36a8.1,8.1,0,0,0,2.84-6.6,8.16,8.16,0,0,0-2.88-6.64q-2.88-2.4-8.08-2.4H153.26v18ZM208.06,44q7.77,0,12.44,4a16.69,16.69,0,0,1,5.72,10.6h-8.64a9.28,9.28,0,0,0-3.08-5.8,9.77,9.77,0,0,0-6.68-2.2,7.8,7.8,0,0,0-5.32,1.64,5.63,5.63,0,0,0-1.88,4.44A4.44,4.44,0,0,0,202,60a9.73,9.73,0,0,0,3.4,2q2.87.94,5.8,1.6a56.35,56.35,0,0,1,8,2.32,12.91,12.91,0,0,1,5.28,3.8,10.61,10.61,0,0,1,2.2,7.08,11,11,0,0,1-4.2,9q-4.2,3.43-11.32,3.44-8.24,0-13.32-3.84a15.81,15.81,0,0,1-6.12-10.72h8.88a8.42,8.42,0,0,0,3.2,5.84,11.49,11.49,0,0,0,7.36,2.24A7.4,7.4,0,0,0,216.34,81a5.64,5.64,0,0,0,1.88-4.36A4.78,4.78,0,0,0,216.78,73a9.8,9.8,0,0,0-3.6-2.12,48.18,48.18,0,0,0-5.92-1.56,68.07,68.07,0,0,1-7.8-2.24,12.27,12.27,0,0,1-5.12-3.64,10.35,10.35,0,0,1-2.12-6.84,11.24,11.24,0,0,1,4.2-9.08Q200.62,44,208.06,44Zm47.36,0q8.57,0,14.16,4.52a19.48,19.48,0,0,1,7,12.28h-9.68A10.33,10.33,0,0,0,263,54.31,12.2,12.2,0,0,0,255.26,52a11.61,11.61,0,0,0-8.8,3.72q-3.51,3.72-3.52,10.92t3.52,11a11.6,11.6,0,0,0,8.8,3.76,12.22,12.22,0,0,0,7.72-2.4,10.55,10.55,0,0,0,3.88-6.56h9.68a19.67,19.67,0,0,1-7,12.32q-5.59,4.56-14.16,4.56a23.14,23.14,0,0,1-11.32-2.72,19.42,19.42,0,0,1-7.72-7.84,24.9,24.9,0,0,1-2.8-12.08,24.63,24.63,0,0,1,2.8-12,19.3,19.3,0,0,1,7.72-7.84A22.93,22.93,0,0,1,255.42,44Zm67,29.6a15.49,15.49,0,0,1-2,7.72,14.58,14.58,0,0,1-6.08,5.72,21.33,21.33,0,0,1-10,2.16,25.09,25.09,0,0,1-10.32-2,18,18,0,0,1-7.28-5.72A16.31,16.31,0,0,1,283.66,73h9.76a10.06,10.06,0,0,0,3.16,6.32A10.32,10.32,0,0,0,304,82a8.81,8.81,0,0,0,6.44-2.24A7.72,7.72,0,0,0,312.7,74,7.38,7.38,0,0,0,311,69a11.6,11.6,0,0,0-4.16-3.08q-2.48-1.12-6.8-2.56a60.33,60.33,0,0,1-8.6-3.36,15.79,15.79,0,0,1-5.64-4.88,14,14,0,0,1-2.32-8.4,14.31,14.31,0,0,1,2.24-8,14.56,14.56,0,0,1,6.4-5.32,23,23,0,0,1,9.6-1.88q8.64,0,13.72,4.16a15.64,15.64,0,0,1,5.8,10.88h-9.84a9.55,9.55,0,0,0-3-5.48,9.37,9.37,0,0,0-6.68-2.28,9.21,9.21,0,0,0-6.16,2,7,7,0,0,0-2.32,5.64,7.17,7.17,0,0,0,1.6,4.76,11.26,11.26,0,0,0,4,3q2.44,1.08,6.68,2.52a57.11,57.11,0,0,1,8.76,3.4,15.78,15.78,0,0,1,5.76,5A14.43,14.43,0,0,1,322.46,73.63ZM351.18,44q8.56,0,14.16,4.52a19.48,19.48,0,0,1,7,12.28h-9.68a10.33,10.33,0,0,0-3.88-6.52A12.2,12.2,0,0,0,351,52a11.61,11.61,0,0,0-8.8,3.72q-3.51,3.72-3.52,10.92t3.52,11a11.6,11.6,0,0,0,8.8,3.76,12.22,12.22,0,0,0,7.72-2.4,10.55,10.55,0,0,0,3.88-6.56h9.68a19.67,19.67,0,0,1-7,12.32q-5.59,4.56-14.16,4.56a23.14,23.14,0,0,1-11.32-2.72,19.42,19.42,0,0,1-7.72-7.84,24.9,24.9,0,0,1-2.8-12.08,24.63,24.63,0,0,1,2.8-12,19.3,19.3,0,0,1,7.72-7.84A22.93,22.93,0,0,1,351.18,44Zm47.6,0A17.35,17.35,0,0,1,409,47a15.89,15.89,0,0,1,6,7.84V44.59h9.12V88.67H415V78.43a16,16,0,0,1-6,7.84,17.49,17.49,0,0,1-10.24,3,19.55,19.55,0,0,1-10.28-2.72,18.62,18.62,0,0,1-7.08-7.84,26.83,26.83,0,0,1-2.56-12.08,26.57,26.57,0,0,1,2.56-12,18.5,18.5,0,0,1,7.08-7.84A19.55,19.55,0,0,1,398.78,44Zm2.8,8a12.67,12.67,0,0,0-9.72,3.88q-3.63,3.87-3.64,10.68t3.64,10.68a12.71,12.71,0,0,0,9.72,3.88,13.35,13.35,0,0,0,6.88-1.8,12.89,12.89,0,0,0,4.8-5.08A16,16,0,0,0,415,66.59,16,16,0,0,0,413.26,59a12.66,12.66,0,0,0-4.8-5.12A13.16,13.16,0,0,0,401.58,52Zm58.16-8.16q7.68,0,12.32,5T476.7,63V88.67h-9.12V64q0-5.93-3-9.16a10.81,10.81,0,0,0-8.32-3.24A11.4,11.4,0,0,0,447.5,55q-3.27,3.48-3.28,10.2V88.67H435.1V44.59h9.12v9.68a14.78,14.78,0,0,1,5.92-7.68A17.09,17.09,0,0,1,459.74,43.87Z" style="fill:#fcfcfc"/></g></svg>
