<svg xmlns="http://www.w3.org/2000/svg" viewBox="0 0 149 1457.09"><g id="Layer_2" data-name="Layer 2"><line x1="74.51" y1="61.87" x2="74.51" y2="1387.47" style="stroke:#000;stroke-linejoin:round;stroke-width:17px"/><circle cx="74.51" cy="293.06" r="28.73" style="fill:#050708;stroke:#000;stroke-miterlimit:10;stroke-width:8px"/><circle cx="74.51" cy="817.94" r="28.73" style="fill:#050708;stroke:#000;stroke-miterlimit:10;stroke-width:8px"/><circle cx="74.51" cy="1079.8" r="28.73" style="fill:#050708;stroke:#000;stroke-miterlimit:10;stroke-width:8px"/><circle cx="74.51" cy="1382.07" r="64.13" style="fill:#050708;stroke:#000;stroke-miterlimit:10;stroke-width:16px"/><circle cx="74.51" cy="555.91" r="28.73" style="fill:#050708;stroke:#000;stroke-miterlimit:10;stroke-width:8px"/><path d="M83,287.23a1.21,1.21,0,0,0-1.18-.69,2.34,2.34,0,0,0-.81.15c-.12,0-12,4.57-16.81,6.56a1.31,1.31,0,0,0-.82.73.93.93,0,0,0,.48,1.12,45,45,0,0,0,4.5,1.49c.26.86,1.17,3.87,1.59,5.16a.84.84,0,0,0,.87.53h.1a.41.41,0,0,0,.29-.16.47.47,0,0,0,.11-.26l.25-3.63,1.93,1.45c1.51,1.13,3.31,2.47,4.32,3.19a1.77,1.77,0,0,0,1,.39,1.39,1.39,0,0,0,1.28-1.16c.84-3.24,2.06-9.38,2.79-13.05l.16-.8A1.55,1.55,0,0,0,83,287.23ZM70.72,297.35l-.23,3.22c-.55-1.75-1.35-4.44-1.36-4.47s0,0,0,0v0l9.26-6a4.92,4.92,0,0,1,.87-.49c.32-.07.4.06.34.14a15.57,15.57,0,0,1-1.28,1.22L70.92,297h0A.44.44,0,0,0,70.72,297.35Z" style="fill:#f9f9f9"/><path d="M87.47,811.39A3.42,3.42,0,0,0,85.08,809c-2.11-.57-10.57-.57-10.57-.57s-8.46,0-10.56.57a3.43,3.43,0,0,0-2.4,2.41,38.59,38.59,0,0,0,0,13.1A3.42,3.42,0,0,0,64,826.9c2.1.57,10.56.57,10.56.57s8.46,0,10.57-.57a3.4,3.4,0,0,0,2.39-2.41,38.59,38.59,0,0,0,0-13.1ZM71.75,822v-8l7.06,4Z" style="fill:#f9f9f9"/><path d="M70.35,1076.25a8.28,8.28,0,0,0,3.74.7,8.37,8.37,0,0,0,3.73-.7,1.52,1.52,0,0,0,.87-1.38c-.23-2.61-.91-3.27-2.11-4.19l-.19-.16a3,3,0,0,0,.77-2,3.07,3.07,0,1,0-6.14,0,3,3,0,0,0,.77,2l-.2.16c-1.19.92-1.88,1.58-2.11,4.26A1.53,1.53,0,0,0,70.35,1076.25Zm6.8-1.39a3.69,3.69,0,0,1-1.57.46l-1.07-2.84.65-1,.48.38C76.55,1072.59,77,1072.92,77.15,1074.86ZM74.09,1067a1.54,1.54,0,1,1-1.54,1.53A1.54,1.54,0,0,1,74.09,1067Zm-1.56,4.91.49-.38.64,1-1.07,2.84a3.63,3.63,0,0,1-1.56-.46C71.21,1072.91,71.63,1072.59,72.53,1071.89Z" style="fill:#fdb017"/><path d="M68.91,1083.72l-.19-.15a3.07,3.07,0,1,0-4.61,0l-.19.15c-1.2.93-1.88,1.58-2.11,4.26a1.49,1.49,0,0,0,.87,1.31,8.24,8.24,0,0,0,3.73.7,8.25,8.25,0,0,0,3.74-.7,1.53,1.53,0,0,0,.87-1.37C70.79,1085.3,70.1,1084.65,68.91,1083.72Zm-2.5-3.7a1.54,1.54,0,1,1-1.53,1.54A1.54,1.54,0,0,1,66.41,1080Zm-1.55,4.91.48-.38.65,1-1.07,2.84a3.8,3.8,0,0,1-1.57-.45C63.54,1086,64,1085.63,64.86,1084.93Zm3,3.43-1.07-2.84.65-1,.48.38c.91.71,1.33,1,1.51,3A3.74,3.74,0,0,1,67.91,1088.36Z" style="fill:#fdb017"/><path d="M84.25,1083.72l-.19-.15a3.07,3.07,0,1,0-4.6,0l-.2.15c-1.19.93-1.88,1.58-2.1,4.26a1.49,1.49,0,0,0,.87,1.31,10.29,10.29,0,0,0,7.46,0,1.51,1.51,0,0,0,.87-1.37C86.14,1085.3,85.45,1084.65,84.25,1083.72Zm-2.49-3.7a1.54,1.54,0,1,1-1.53,1.54A1.53,1.53,0,0,1,81.76,1080Zm-1.55,4.91.48-.38.64,1-1.07,2.84a3.73,3.73,0,0,1-1.56-.45C78.88,1086,79.31,1085.63,80.21,1084.93Zm3.05,3.43-1.07-2.84.64-1,.48.38c.91.71,1.33,1,1.51,3A3.68,3.68,0,0,1,83.26,1088.36Z" style="fill:#fdb017"/><path d="M77.92,1081.56a.76.76,0,0,0-.76-.77H74.85v-2.3a.77.77,0,1,0-1.53,0v2.3H71a.77.77,0,1,0,0,1.53h6.14A.76.76,0,0,0,77.92,1081.56Z" style="fill:#fdb017"/><path d="M70.15,561a4.56,4.56,0,0,1-4.24-3.16,4.42,4.42,0,0,0,2-.06l.07,0a4.56,4.56,0,0,1-3-2.09,4.36,4.36,0,0,1-.67-2.42,4.53,4.53,0,0,0,2,.55,4.58,4.58,0,0,1-1.39-6.06,13.05,13.05,0,0,0,9.4,4.76,5,5,0,0,1-.07-.5A4.54,4.54,0,0,1,78,547a4.46,4.46,0,0,1,4,1.27.22.22,0,0,0,.24.07,9.25,9.25,0,0,0,2.65-1l.06,0h0A4.62,4.62,0,0,1,83,549.72a8.93,8.93,0,0,0,2.54-.68l0,0c-.18.23-.34.46-.53.68a8.83,8.83,0,0,1-1.65,1.58.15.15,0,0,0-.08.14,12.37,12.37,0,0,1-.08,2,13.35,13.35,0,0,1-1.18,4.06,13,13,0,0,1-2.46,3.59,12.22,12.22,0,0,1-6.26,3.49,13.55,13.55,0,0,1-2.54.3,12.78,12.78,0,0,1-7.29-2l-.11-.07a9.18,9.18,0,0,0,4.56-.62A9.34,9.34,0,0,0,70.15,561Z" style="fill:#f9f9f9;fill-rule:evenodd"/><circle cx="74.51" cy="33.14" r="28.73" style="fill:#050708;stroke:#000;stroke-miterlimit:10;stroke-width:8px"/><path d="M78,30.62a11.45,11.45,0,0,1-1,.92l-5.58,4.62h0a.4.4,0,0,0-.16.25l-.16,2.44c-.43-1.31-1-3.36-1-3.39h0l7-4.56a3.68,3.68,0,0,1,.65-.37C78,30.46,78.07,30.56,78,30.62Z" style="fill:#f9f9f9"/><path d="M64.52,26.43v15a1.79,1.79,0,0,0,1.78,1.79H82.69a1.79,1.79,0,0,0,1.79-1.79v-15Zm16.14,3.1-.12.62C80,32.92,79.06,37.56,78.42,40a1,1,0,0,1-1,.88,1.34,1.34,0,0,1-.77-.3c-.77-.55-2.13-1.57-3.27-2.42-.59-.44-1.11-.82-1.46-1.1l-.2,2.75a.24.24,0,0,1-.08.2.31.31,0,0,1-.22.11h-.08a.66.66,0,0,1-.66-.39c-.32-1-1-3.26-1.19-3.9-.59-.18-2.5-.74-3.41-1.14a.72.72,0,0,1-.37-.85,1,1,0,0,1,.62-.55C70,31.81,79,28.39,79.1,28.35a1.84,1.84,0,0,1,.6-.11.91.91,0,0,1,.89.52A1.11,1.11,0,0,1,80.66,29.53Z" style="fill:#f9f9f9"/><rect x="58.56" y="25.8" width="4.88" height="13.96" rx="2.44" style="fill:#f9f9f9"/><rect x="85.86" y="25.8" width="4.88" height="13.96" rx="2.44" style="fill:#f9f9f9"/><path d="M78.59,51h0a2.44,2.44,0,0,1-2.44-2.44V43c0-1.35.44-1.79,1.79-1.79l.54-.07c1.35,0,2.55.51,2.55,1.86v5.5A2.44,2.44,0,0,1,78.59,51Z" style="fill:#f9f9f9"/><rect x="68.32" y="40.57" width="4.88" height="10.38" rx="2.44" style="fill:#f9f9f9"/><path d="M74.48,15.33a9.88,9.88,0,0,0-9.88,9.89H84.38A9.89,9.89,0,0,0,74.48,15.33Zm-5,6.52a1.06,1.06,0,1,1,1.06-1.06A1.06,1.06,0,0,1,69.5,21.85Zm9.68,0a1.06,1.06,0,0,1,0-2.12,1.06,1.06,0,0,1,0,2.12Z" style="fill:#f9f9f9"/></g></svg>
