<svg id="fd1465ec-9e1a-4815-b054-d5f18da1cc8c" data-name="Layer 1" xmlns="http://www.w3.org/2000/svg" xmlns:xlink="http://www.w3.org/1999/xlink" viewBox="0 0 800 205"><defs><clipPath id="bf52e9a6-1da2-402d-9956-3554254163b9"><rect x="37.47" y="22.84" width="725.06" height="159.31" style="fill:none"/></clipPath></defs><g style="clip-path:url(#bf52e9a6-1da2-402d-9956-3554254163b9)"><path d="M321.13,73.59A26.74,26.74,0,0,1,331.74,85a37.09,37.09,0,0,1,4.1,17.81c0,6.72-1.36,12.44-4.44,17.48a25.38,25.38,0,0,1-12,11.09,38.46,38.46,0,0,1-17.79,4,28.36,28.36,0,0,1-10.61-2,21.85,21.85,0,0,1-8.9-5.38V163H262.28V70.9h17.11l1.71,7.4c7.52-6,15.74-9.08,24.29-9.08A27.73,27.73,0,0,1,321.13,73.59Zm-10.95,41.68a15.34,15.34,0,0,0,5.13-12.1,17.66,17.66,0,0,0-4.79-12.44c-3.08-3.36-7.18-4.7-11.63-4.7A18.88,18.88,0,0,0,289,88.38a15.62,15.62,0,0,0-6.5,6.72v15.13a14.24,14.24,0,0,0,5.47,7,17.82,17.82,0,0,0,9.58,2.69A18.37,18.37,0,0,0,310.18,115.27Z" style="fill:#fff"/><path d="M347.48,85.35a31.85,31.85,0,0,1,12.66-11.43,41.43,41.43,0,0,1,18.47-4.37,37.4,37.4,0,0,1,18.48,4.37,31.59,31.59,0,0,1,12.32,11.76,34,34,0,0,1,0,33.61c-3.08,5-6.84,9.08-12.32,11.77a40.37,40.37,0,0,1-18.48,4.37,41.36,41.36,0,0,1-18.47-4A29.56,29.56,0,0,1,347.48,120a35.76,35.76,0,0,1,0-34.66Zm20.18,29.24c2.74,3.36,6.51,4.7,10.95,4.7a14.33,14.33,0,0,0,10.95-4.7c2.74-3,4.11-7.4,4.11-12.1q0-7.56-4.11-12.1a14.22,14.22,0,0,0-11.29-5,14.94,14.94,0,0,0-10.95,4.7,18.87,18.87,0,0,0-4.1,12.44A17.22,17.22,0,0,0,367.66,114.59Z" style="fill:#fff"/><path d="M446,23.17V133.75H426.18V23.17Z" style="fill:#fff"/><path d="M527.46,72.58l-40.38,90.75H467.92L483,130.72,454.25,72.58h22.59l16.42,36.3,16.43-36.3Z" style="fill:#fff"/><path d="M603.42,72.58v61.17a26.39,26.39,0,0,1-5.14,15.75,34.16,34.16,0,0,1-13.68,11.09,44,44,0,0,1-18.82,4,51.44,51.44,0,0,1-13.35-1.68,61.85,61.85,0,0,1-9.23-4,62.6,62.6,0,0,1-8.56-6.38l11.64-13.45a33.08,33.08,0,0,0,8.55,6,24.65,24.65,0,0,0,10.61,2.37,21.67,21.67,0,0,0,12.66-3.7,12.08,12.08,0,0,0,5.13-10.42v-8.74a22.19,22.19,0,0,1-8.9,7.73,32.22,32.22,0,0,1-14.37,3A29.36,29.36,0,0,1,544.22,131a32.33,32.33,0,0,1-11.63-11.77,34,34,0,0,1-4.45-16.46A31.73,31.73,0,0,1,532.59,86a34.09,34.09,0,0,1,12-12.1A28.06,28.06,0,0,1,560,69.49a43.25,43.25,0,0,1,13.69,2,20.5,20.5,0,0,1,9.24,5.71L585,72.5Zm-20.19,37.64V95.09a14.59,14.59,0,0,0-6.5-7,21.52,21.52,0,0,0-10.61-2.69,18.09,18.09,0,0,0-12.32,4.7,15.34,15.34,0,0,0-5.13,12.1,17.36,17.36,0,0,0,17.24,17.48h.21c7.88-.39,13.69-3.41,17.11-9.46Z" style="fill:#fff"/><path d="M619.85,85.35a32.62,32.62,0,0,1,12.66-11.76A41.48,41.48,0,0,1,651,69.22a37.47,37.47,0,0,1,18.47,4.37,31.52,31.52,0,0,1,12.32,11.76,34.18,34.18,0,0,1,4.45,16.81,30.94,30.94,0,0,1-4.45,16.8,27.5,27.5,0,0,1-12.32,11.77A40.43,40.43,0,0,1,651,135.1a41.41,41.41,0,0,1-18.48-4,29.5,29.5,0,0,1-12.66-11.42c-3.08-5-4.45-10.76-4.45-17.82A31.44,31.44,0,0,1,619.85,85.35Zm19.84,29.25c2.74,3.36,6.5,4.7,10.95,4.7a14.35,14.35,0,0,0,11-4.7c2.74-3,4.11-7.4,4.11-12.1q0-7.57-4.11-12.1a14.31,14.31,0,0,0-11-4.71,14.84,14.84,0,0,0-10.95,4.71c-3.08,3-4.44,7.39-4.44,12.1A21,21,0,0,0,639.69,114.6Z" style="fill:#fff"/><path d="M756.38,74.59c4.1,3.36,5.81,7.73,6.15,13.11v46.05H742.34V95.09Q741.83,86,733.11,86c-4.45,0-8.22,2-11,6.39S718,102.15,718,108.54v25.21H698.2V72.58h18.14l1.37,9.74a25.38,25.38,0,0,1,9.58-9.41c4.1-2.35,8.9-3.36,14.37-3.36C747.48,69.55,752.61,71.23,756.38,74.59Z" style="fill:#fff"/><path d="M177.42,71.57a12,12,0,0,0-11.63,0L139.1,87,121,97.12,94.27,112.58a11.92,11.92,0,0,1-11.63,0L61.42,100.5a11.56,11.56,0,0,1-5.81-9.75V66.87a10.88,10.88,0,0,1,5.81-9.75L82.3,45.36a11.92,11.92,0,0,1,11.63,0L114.8,57.12a11.57,11.57,0,0,1,5.82,9.75V82.33l18.13-10.42V56.5a10.88,10.88,0,0,0-5.81-9.75L94.27,24.5a11.92,11.92,0,0,0-11.63,0L43.29,46.7a10.88,10.88,0,0,0-5.82,9.8v44.7A10.86,10.86,0,0,0,43.29,111l39.35,22.18a11.92,11.92,0,0,0,11.63,0L121,118l18.1-10.46,26.69-15.13a12,12,0,0,1,11.63,0l20.87,11.77a11.54,11.54,0,0,1,5.82,9.74v23.87a10.84,10.84,0,0,1-5.82,9.74l-20.87,12.1a11.92,11.92,0,0,1-11.63,0l-20.88-11.76a11.56,11.56,0,0,1-5.81-9.75V122.66L121,133.08V148.5a10.86,10.86,0,0,0,5.82,9.75l39.31,22.25a11.92,11.92,0,0,0,11.63,0l39.35-22.18a11.57,11.57,0,0,0,5.82-9.75v-44.7a10.91,10.91,0,0,0-5.82-9.75Z" style="fill:#8247e5"/></g><rect width="800" height="205" style="fill:none"/></svg>
