<svg xmlns="http://www.w3.org/2000/svg" xmlns:xlink="http://www.w3.org/1999/xlink" viewBox="0 0 1440 1024"><defs><clipPath id="a31479a8-dd5b-4080-a52c-43c618a6973f"><rect width="5760" height="1030" style="fill:none"/></clipPath><linearGradient id="f5bea429-e66c-46dd-a3a6-fcb4c4e4efb0" y1="515" x2="5760" y2="515" gradientUnits="userSpaceOnUse"><stop offset="0" stop-color="#414042"/><stop offset="1"/></linearGradient><clipPath id="e9a8e6f8-d00a-44d5-b148-16a65fdd41e2"><rect y="-512.41" width="5771.83" height="3243.65" style="fill:none"/></clipPath><linearGradient id="bbca24fb-6381-4757-a2ee-1d91591d66fc" x1="-273.75" y1="1183.73" x2="6107.58" y2="1183.73" gradientUnits="userSpaceOnUse"><stop offset="0" stop-color="#fe5900"/><stop offset="0" stop-color="#f75e0a"/><stop offset="0.03" stop-color="#cc7942"/><stop offset="0.06" stop-color="#a69274"/><stop offset="0.09" stop-color="#87a69f"/><stop offset="0.12" stop-color="#6db7c1"/><stop offset="0.15" stop-color="#59c4dc"/><stop offset="0.18" stop-color="#4aceef"/><stop offset="0.21" stop-color="#42d3fa"/><stop offset="0.25" stop-color="#3fd5fe"/><stop offset="0.61" stop-color="#f5804e"/><stop offset="1" stop-color="#0090c3"/></linearGradient><linearGradient id="f5e4375a-feee-477d-b0f4-624bbccf7851" x1="-267.6" y1="1151.31" x2="6119.96" y2="1151.31" xlink:href="#bbca24fb-6381-4757-a2ee-1d91591d66fc"/><linearGradient id="a616cb46-9d5f-4e5e-8461-ad438e946ff1" x1="-261.45" y1="1118.88" x2="6132.33" y2="1118.88" xlink:href="#bbca24fb-6381-4757-a2ee-1d91591d66fc"/><linearGradient id="f5e4d837-40db-42df-a86c-0b5b5b1809a8" x1="-255.3" y1="1086.34" x2="6144.71" y2="1086.34" xlink:href="#bbca24fb-6381-4757-a2ee-1d91591d66fc"/><linearGradient id="a7af7a7f-5fae-4f9a-86ed-6edde814aaf0" x1="-249.15" y1="1053.86" x2="6157.1" y2="1053.86" xlink:href="#bbca24fb-6381-4757-a2ee-1d91591d66fc"/><linearGradient id="abfae1ff-862e-4dba-9c33-87427a15f5e8" x1="-243" y1="1021.38" x2="6169.49" y2="1021.38" xlink:href="#bbca24fb-6381-4757-a2ee-1d91591d66fc"/><linearGradient id="ff761473-f4bc-4b24-a543-11d7a9a93b11" x1="-236.85" y1="988.8" x2="6181.92" y2="988.8" xlink:href="#bbca24fb-6381-4757-a2ee-1d91591d66fc"/><linearGradient id="bfd5d035-ea49-495f-98cd-13a22d671512" x1="-230.7" y1="956.36" x2="6194.35" y2="956.36" xlink:href="#bbca24fb-6381-4757-a2ee-1d91591d66fc"/><linearGradient id="fb1c45bd-e775-4eca-ae01-1e1ba618fd7f" x1="-224.55" y1="923.92" x2="6206.77" y2="923.92" xlink:href="#bbca24fb-6381-4757-a2ee-1d91591d66fc"/><linearGradient id="f4bc0756-87f3-4f72-9760-5eaaa8d7ff7a" x1="-218.4" y1="891.47" x2="6219.2" y2="891.47" xlink:href="#bbca24fb-6381-4757-a2ee-1d91591d66fc"/><linearGradient id="f51687d1-b9b1-4000-bf24-2b561b89d30e" x1="-212.25" y1="859.01" x2="6231.62" y2="859.01" xlink:href="#bbca24fb-6381-4757-a2ee-1d91591d66fc"/><linearGradient id="bb85be11-18d4-4088-a400-fc3a2a5a1be2" x1="-206.1" y1="826.5" x2="6244.04" y2="826.5" xlink:href="#bbca24fb-6381-4757-a2ee-1d91591d66fc"/><linearGradient id="b94774db-1e3d-4886-955c-98419b509d5d" x1="-199.95" y1="794.01" x2="6256.46" y2="794.01" xlink:href="#bbca24fb-6381-4757-a2ee-1d91591d66fc"/><linearGradient id="b17d559e-5793-4db9-becc-833dc36cf6d5" x1="-193.8" y1="761.53" x2="6268.88" y2="761.53" xlink:href="#bbca24fb-6381-4757-a2ee-1d91591d66fc"/><linearGradient id="a79fd6da-3f8c-4280-9ebd-14b069160f6c" x1="-187.65" y1="728.97" x2="6281.29" y2="728.97" xlink:href="#bbca24fb-6381-4757-a2ee-1d91591d66fc"/><linearGradient id="fbbfb37a-fa6a-482c-a7ef-7f0415ddb006" x1="-181.5" y1="696.51" x2="6293.71" y2="696.51" xlink:href="#bbca24fb-6381-4757-a2ee-1d91591d66fc"/><linearGradient id="b54a9143-2c88-418d-bcf2-6ebc1b736a9f" x1="-175.35" y1="664.04" x2="6306.12" y2="664.04" xlink:href="#bbca24fb-6381-4757-a2ee-1d91591d66fc"/><linearGradient id="af9ea259-36b2-4ca8-9f0a-13be22d1ac41" x1="-169.2" y1="631.56" x2="6318.53" y2="631.56" xlink:href="#bbca24fb-6381-4757-a2ee-1d91591d66fc"/><linearGradient id="bb883f36-c64c-492f-9c74-644ff770660e" x1="-163.05" y1="599.08" x2="6330.95" y2="599.08" xlink:href="#bbca24fb-6381-4757-a2ee-1d91591d66fc"/><linearGradient id="bf542526-587a-4003-bac3-1a01922cf52d" x1="-156.9" y1="566.6" x2="6343.36" y2="566.6" xlink:href="#bbca24fb-6381-4757-a2ee-1d91591d66fc"/></defs><g id="f18508ca-183b-44ec-9b8c-bb32ab820a37" data-name="Layer 1"><image width="5765" height="1024" transform="translate(0 6)" xlink:href="../../Desktop%20-%203(1).jpg"/></g><g id="bbefca02-04f7-496e-87ac-aa8ce5ee0bb6" data-name="Layer 5"><g id="b4455ed8-e2fa-4c21-96b0-3e48be5fb267" data-name="Layer 3"><g style="clip-path:url(#a31479a8-dd5b-4080-a52c-43c618a6973f)"><rect width="5760" height="1030" style="fill:url(#f5bea429-e66c-46dd-a3a6-fcb4c4e4efb0)"/><g style="clip-path:url(#e9a8e6f8-d00a-44d5-b148-16a65fdd41e2)"><g style="opacity:0.569999999552965"><path d="M5772.37,1362c-290.48,0-531.38-32-750.95-68.72-190.14-32.45-372.33-72.75-548.51-111.72-231.71-51.26-450.57-99.67-686.87-132-349.47-47.64-828.41-82.19-1435.08,74.75-214.75,56.33-430.5,83.35-659.44,82.74-202.58-.57-391.23-22.15-573.68-43-448-51.22-871.15-99.61-1389.79,183.6l-1.8-3.3C-148.54,1276-26.51,1225,99.33,1188.57c112.84-32.67,226.7-53,348.09-62.09,226.44-17,442.3,7.68,670.85,33.82,370,42.3,752.56,86,1231.75-39.65,267-69.07,524.07-106.3,785.83-113.8,205.62-5.89,412.4,6.49,650.7,39,236.45,32.39,455.38,80.82,687.17,132.09,176.14,39,358.28,79.26,548.33,111.69,298.56,49.93,636.69,91.14,1085.23,54.89l.3,3.74C5988.52,1357.85,5877.2,1362,5772.37,1362Z" style="fill:url(#bbca24fb-6381-4757-a2ee-1d91591d66fc)"/></g><g style="opacity:0.539999999602636"><path d="M5842.51,1325.53c-311.24,0-561.85-35-825.7-77.06-182.6-29.1-360.16-63.48-531.89-96.74-246.15-47.66-478.66-92.69-725.91-123.8-405.9-50.57-886.84-92.42-1458.6,52-207.87,52.5-417,78.29-639.36,78.86-196.65.57-380-18.23-557.26-36.34-442.25-45.18-860-87.86-1369.64,189.41l-1.75-3.21c123.05-66.94,243-117.08,366.83-153.3,111-32.47,223.14-53.07,342.75-63,223.13-18.44,436.39,3.34,662.18,26.41,359.62,36.74,731.48,74.73,1195.36-42.42,572.37-144.55,1053.71-102.67,1459.95-52.06,247.36,31.13,479.93,76.17,726.15,123.85,171.69,33.24,349.23,67.62,531.77,96.71,337.52,53.8,653.44,96.06,1102.34,68.16l.23,3.65C6021.65,1322.78,5929.69,1325.53,5842.51,1325.53Z" style="fill:url(#f5e4375a-feee-477d-b0f4-624bbccf7851)"/></g><g style="opacity:0.509999999652306"><path d="M5920.11,1290.2c-336.2,0-589.47-38.26-855.09-78.38l-52.82-8c-161.45-24.25-320.95-51-475.2-76.79-274.42-46-533.62-89.36-805-120.54L3692.3,1002c-396.69-45.09-890.37-101.21-1442.44,33.72-235.39,57.52-446.78,76-645,76-180.08,0-349.25-15.23-515.76-30.22-436.38-39.27-848.54-76.37-1348.89,194.76l-1.7-3.14c120.8-65.45,238.68-114.74,360.37-150.68,109.17-32.24,219.49-53.08,337.27-63.69,219.76-19.81,430.33-.86,653.27,19.21,349.48,31.45,710.85,64,1159.56-45.68,552.68-135.07,1046.72-78.92,1443.68-33.79l39.69,4.5c271.49,31.19,530.73,74.61,805.19,120.57,154.24,25.82,313.73,52.53,475.15,76.78l52.82,8c318.5,48.11,619.34,93.55,1066.62,73.47l.16,3.55C6057.8,1288.67,5987.27,1290.2,5920.11,1290.2Z" style="fill:url(#a616cb46-9d5f-4e5e-8461-ad438e946ff1)"/></g><g style="opacity:0.479999999701977"><path d="M5999.43,1256.45c-338.9,0-582.45-36.28-838.49-74.42-49.8-7.42-101.28-15.09-153.35-22.45-95.27-13.48-191.08-27.31-283.74-40.69-349.41-50.44-679.44-98.09-1018.89-133.43-49.77-5.08-100.5-10.7-154.2-16.66-379.92-42.15-852.74-94.61-1351.45,23.09-433.72,102.38-784.65,75.19-1124,48.91C644.51,1007.43,237.62,975.92-253.65,1241l-1.65-3c224.67-121.23,442.68-188.79,686.08-212.6,216.51-21.18,424.54-5.07,644.79,12,339.1,26.26,689.75,53.42,1123-48.83,222.26-52.45,457.43-75.95,719-71.82,227.52,3.59,443.29,27.53,633.66,48.66,53.7,5.95,104.42,11.58,154.18,16.65,339.52,35.35,669.58,83,1019,133.46,92.66,13.37,188.47,27.2,283.74,40.68,52.07,7.36,103.57,15,153.37,22.45,291,43.36,565.94,84.31,983.17,72.24l.09,3.46Q6069.11,1256.49,5999.43,1256.45Z" style="fill:url(#f5e4d837-40db-42df-a86c-0b5b5b1809a8)"/></g><g style="opacity:0.449999999751648"><path d="M6081.92,1224.11c-353.95,0-594-36.43-847.21-74.86-74.62-11.33-151.78-23-231.73-33.67-453.75-60.34-899.56-111.12-1325-150.9-77-7-158-16.31-243.75-26.15-367.82-42.22-825.58-94.77-1285.42,9.81-237.83,54.09-450.48,70.29-650.12,70.29-151.06,0-294.65-9.26-436.22-18.4-425.55-27.44-827.49-53.37-1310,205.82l-1.59-3c220.67-118.55,435.15-185.58,675-210.95,213.43-22.58,419.09-9.31,636.82,4.73,328.45,21.19,668.08,43.1,1085.39-51.81,205.06-46.64,425.8-66.39,674.85-60.4,217,5.22,426.7,29.29,611.69,50.52,85.74,9.85,166.72,19.14,243.68,26.14,425.54,39.8,871.4,90.57,1325.19,150.93,80,10.63,157.15,22.34,231.78,33.67,270.6,41.06,526.18,79.86,921.84,74.29l.05,3.36Q6118.67,1224.11,6081.92,1224.11Z" style="fill:url(#a7af7a7f-5fae-4f9a-86ed-6edde814aaf0)"/></g><g style="opacity:0.419999999801318"><path d="M6168.15,1193.07c-379.67,0-631.78-39.77-875.62-78.24-93.88-14.81-190.95-30.13-294.16-43-395.23-49.36-796.67-82.37-1184.89-114.29q-81.64-6.71-162.58-13.41c-98.31-7.89-204.62-20.89-317.17-34.65C2956.21,863.32,2528.32,811,2098.22,905c-241.41,52.76-456.49,67.72-658.66,67.72-134,0-262.25-6.56-388.86-13C630,938.18,232.6,917.85-241.46,1171.32l-1.54-2.88C-26.16,1052.5,185,986,421.38,959c210.53-24,414-13.59,629.49-2.57,317.44,16.24,645.7,33,1046.65-54.61,191.91-42,401.62-58.32,641.11-50.06,209,7.22,414.35,32.32,595.49,54.46,112.52,13.76,218.8,26.75,317.05,34.64q80.91,6.72,162.58,13.42c388.25,31.92,789.72,64.93,1185,114.29,103.26,12.89,200.36,28.21,294.26,43,243.7,38.44,495.74,78.2,875.1,78.2h1.35v3.27Z" style="fill:url(#abfae1ff-862e-4dba-9c33-87427a15f5e8)"/></g><g style="opacity:0.389999999850989"><path d="M6181.88,1163c-369.45-4.67-610.38-44.66-843.38-83.32-109-18.09-221.72-36.8-344.74-51.2-318.26-37.25-647.39-57.87-965.68-77.81-133.58-8.37-271.71-17-404.21-26.67-115.71-8.08-244-25-379.74-42.88-370.32-48.81-790.05-104.13-1196.46-19C1800,914,1580.37,927.51,1373.61,927.52c-114.12,0-224.29-4.13-333.2-8.2C624,903.75,230.71,889-235.36,1137l-1.49-2.8c213.21-113.43,421.17-179.56,654.46-208.12,207.86-25.44,409.47-17.91,622.92-9.92C1346.55,927.59,1663,939.43,2047,859,2454,773.73,2874,829.09,3244.55,877.93c135.73,17.89,263.93,34.79,379.55,42.87,132.48,9.64,270.6,18.29,404.18,26.66,318.33,19.95,647.5,40.57,965.85,77.83,123.09,14.41,235.85,33.12,344.89,51.22,232.88,38.64,473.69,78.6,842.9,83.28Z" style="fill:url(#ff761473-f4bc-4b24-a543-11d7a9a93b11)"/></g><g style="opacity:0.359999999900659"><path d="M6194.27,1133.42c-362-9-594.25-49.75-818.82-89.2-126.58-22.24-246.14-43.24-386.3-58.59-295.08-32.31-604.63-45.18-904-57.62-169.57-7-329.73-13.7-488.32-23.65-130.43-7.78-278.24-28.84-434.72-51.15-364.72-52-778.1-110.91-1165-33.49-366.73,73.38-671,66.31-965.22,59.47-430.63-10-802.53-18.66-1261.16,224l-1.44-2.72c209.83-111,414.9-176.82,645.36-207,205.47-26.93,405.52-22.28,617.31-17.36C1326,883,1630.12,890,1996.51,816.7c387.43-77.52,801.08-18.56,1166,33.46,156.42,22.3,304.16,43.36,434.48,51.13,158.56,9.94,318.71,16.6,488.26,23.65,299.41,12.44,609,25.31,904.19,57.63,140.27,15.36,259.87,36.37,386.5,58.62,224.46,39.43,456.56,80.2,818.37,89.15Z" style="fill:url(#bfd5d035-ea49-495f-98cd-13a22d671512)"/></g><g style="opacity:0.32999999995033"><path d="M6206.66,1104.34c-357.42-12.88-583-54.95-801.21-95.64-136.63-25.47-265.69-49.54-420.92-65.4-284.83-29.12-587.59-35.4-880.38-41.47-186.3-3.86-362.27-7.51-534.35-16.59-143.24-7.11-308.9-32.62-484.28-59.62C2725.28,770.15,2317,707.29,1946.57,777.83c-348.19,66.3-639.35,63.76-920.91,61.3-427.64-3.74-796.93-7-1248.82,230.79l-1.39-2.64C-17.77,958.49,184.73,893,412.75,861c203.45-28.47,402.35-26.73,612.93-24.9,281.43,2.47,572.44,5,920.33-61.24,370.91-70.63,779.49-7.73,1140,47.77,175.31,27,340.89,52.49,484,59.59,172,9.08,348,12.73,534.25,16.59,292.85,6.07,595.68,12.35,880.62,41.48,155.36,15.88,284.47,39.95,421.17,65.44,218.07,40.67,443.57,82.71,800.77,95.59Z" style="fill:url(#fb1c45bd-e775-4eca-ae01-1e1ba618fd7f)"/></g><g style="opacity:0.30000000000000004"><path d="M6219.06,1075.67c-355.05-16.58-575.68-60.27-789-102.52-144.75-28.67-281.47-55.74-450.11-71.79-279.66-26.62-580.7-26.76-871.83-26.9-197.85-.1-384.72-.19-565.31-7.94-154.67-6.17-336.93-36.38-529.89-68.36C2656.3,739.06,2252.14,672.08,1896,736.33c-328.51,59.28-605.65,61-873.67,62.61C596.64,801.53,229,803.78-217.06,1037l-1.34-2.55C-14.26,927.71,186.12,862.31,412.18,828.62c201.89-30.08,400.2-31.29,610.15-32.57,267.89-1.64,544.91-3.32,873.18-62.56,356.61-64.34,761,2.69,1117.85,61.82,192.86,32,375,62.16,529.53,68.32,180.53,7.76,367.37,7.85,565.19,7.94,291.19.14,592.3.29,872.11,26.92,168.78,16.06,305.57,43.15,450.39,71.83,213.26,42.23,433.78,85.9,788.62,102.47Z" style="fill:url(#f4bc0756-87f3-4f72-9760-5eaaa8d7ff7a)"/></g><g style="opacity:0.270000000049671"><path d="M6231.46,1047.34c-354.49-20.1-571.39-65.68-781.15-109.76-151.35-31.81-294.3-61.85-475-77.81-277.05-24.48-578.9-18.71-870.81-13.11-206.8,4-402.12,7.69-588.76,1.48-165.06-5-363-40.17-572.55-77.4-353.51-62.8-754.18-134-1097.71-75.56C1538.11,747.46,1276.22,753,1023,758.38c-425.26,9-792.52,16.78-1233.92,246.09l-1.29-2.48C-10.18,897,188.62,831.57,413.4,796c201-31.78,399.4-36,609.5-40.43,253.16-5.36,514.95-10.91,822.11-63.16,344-58.51,744.93,12.72,1098.66,75.56,209.45,37.21,407.29,72.36,572.15,77.36,186.56,6.21,381.86,2.48,588.61-1.48,292-5.59,593.93-11.37,871.11,13.12,180.89,16,323.92,46,475.34,77.86,209.66,44.06,426.45,89.61,780.74,109.7Z" style="fill:url(#f51687d1-b9b1-4000-bf24-2b561b89d30e)"/></g><g style="opacity:0.240000000099341"><path d="M6243.86,1019.3C5888.46,995.79,5664.66,946,5467.2,902c-156.75-34.9-304.8-67.86-496.52-83.54-275.85-22.55-580-11-874.06.26-214.27,8.17-416.65,15.88-607.92,11.33-174.67-3.67-387.6-44-613-86.77-350.86-66.52-748.53-141.91-1080.74-89-284.19,45.3-529.12,54.21-766,62.82C602.14,732.66,233.53,746.07-204.87,972.2l-1.23-2.39C232.83,743.4,601.71,730,1028.85,714.45c236.78-8.61,481.63-17.51,765.65-62.79,148.69-23.69,322.62-23.95,531.72-.78,184.16,20.41,370.12,55.66,550,89.75,225.32,42.72,438.14,83.06,612.59,86.73,191.19,4.55,393.54-3.17,607.76-11.33,294.17-11.22,598.37-22.81,874.38-.25,191.91,15.69,340.05,48.67,496.88,83.59,197.37,43.94,421.06,93.75,776.26,117.24Z" style="fill:url(#bb85be11-18d4-4088-a400-fc3a2a5a1be2)"/></g><g style="opacity:0.210000000149012"><path d="M6256.26,991.52c-357.51-26.84-579.26-79-774.91-125.11-161.18-37.94-313.44-73.79-515.29-89-275.54-20.75-582.82-3.41-880,13.37-220.81,12.47-429.37,24.25-624.42,21.43-183.68-2.17-411.11-48-651.89-96.48-348.48-70.19-743.46-149.75-1065.39-102C1486.2,652,1260.7,663.6,1042.62,674.81,611.37,697,238.93,716.14-198.77,940.19l-1.18-2.31C238.24,713.57,610.94,694.41,1042.49,672.22,1260.51,661,1486,649.41,1744,611.15c144.15-21.38,314.36-19.36,520.37,6.16,181.67,22.51,366.84,59.81,545.91,95.87,240.66,48.48,468,94.27,651.41,96.43,194.95,2.83,403.48-9,624.25-21.42,297.23-16.78,604.59-34.14,880.32-13.37,202.05,15.23,354.4,51.09,515.69,89.07,195.55,46,417.19,98.21,774.51,125Z" style="fill:url(#b94774db-1e3d-4886-955c-98419b509d5d)"/></g><g style="opacity:0.180000000198682"><path d="M6268.67,964c-360.63-30.11-581-84.84-775.36-133.13-172-42.73-320.61-79.63-531.87-94.24-275.85-19.06-586.9,4-887.71,26.34-226.73,16.82-440.94,32.72-639.11,31.68-192.25-.55-433.81-52-689.56-106.54-363.2-77.41-738.77-157.45-1051.23-114.73-228,31.17-430.33,44.51-626,57.41-440,29-820,54.07-1260.47,277.66l-1.13-2.23C247.09,682.35,627.34,657.28,1067.63,628.25c195.66-12.9,398-26.24,625.86-57.4,140-19.13,306.75-14.92,509.88,12.88,179.37,24.55,363.82,63.86,542.21,101.88,255.62,54.48,497.06,105.93,689.05,106.48,198.09,1,412.23-14.84,638.92-31.67,300.89-22.32,612-45.41,888.06-26.33,211.48,14.62,360.15,51.55,532.3,94.3,194.31,48.27,414.54,103,775,133.07Z" style="fill:url(#b17d559e-5793-4db9-becc-833dc36cf6d5)"/></g><g style="opacity:0.150000000248353"><path d="M6281.07,936.58c-364.57-33.36-584-90.74-777.61-141.36-175.23-45.82-326.57-85.39-546.64-99.27-276.58-17.45-591.83,11.35-896.7,39.2-232.21,21.22-451.54,41.25-652.54,42l-6.14,0c-199.54,0-452.54-56.83-720.26-117-361-81.1-734.26-165-1037.89-127.08-191.21,23.84-364.44,37.55-532,50.8C655.56,620,262,651.14-186.57,876.81l-1.08-2.15C18.11,771.14,222.83,702,456.63,657.12c210.73-40.46,426.29-57.52,654.5-75.58,167.5-13.25,340.71-26.95,531.86-50.79,304-37.92,677.53,46,1038.71,127.12,270.33,60.72,525.69,118,725.87,116.9,200.9-.77,420.17-20.8,652.33-42,305-27.86,620.32-56.67,897.07-39.21,220.31,13.9,371.75,53.49,547.1,99.34,193.52,50.6,412.85,108,777.22,141.3Z" style="fill:url(#a79fd6da-3f8c-4280-9ebd-14b069160f6c)"/></g><g style="opacity:0.120000000298023"><path d="M6293.48,909.38c-369.21-36.58-588.16-96.72-781.33-149.77-177.91-48.86-331.56-91.06-559.95-104.12-277.61-15.88-597.38,18.63-906.63,52-237.36,25.62-461.55,49.83-665,52.42-4.79.07-9.63.11-14.48.11-206.36,0-469.73-62.14-748.23-127.85C2259.05,547.53,1888.05,460,1592.74,493.12c-143.41,16.08-277,28-406.11,39.59C683,577.79,285.17,613.39-180.47,845.39l-1-2.07c213.88-106.56,427.41-178.63,672-226.81,221.46-43.63,451.93-64.26,695.93-86.1,129.14-11.55,262.68-23.5,406.06-39.59,295.71-33.16,666.91,54.42,1025.88,139.11,284.9,67.22,554.08,130.7,762.15,127.69,203.37-2.6,427.51-26.8,664.81-52.41,309.34-33.39,629.22-67.93,907-52,228.63,13.08,382.39,55.31,560.43,104.21,193.08,53,411.93,113.13,780.95,149.7Z" style="fill:url(#fbbfb37a-fa6a-482c-a7ef-7f0415ddb006)"/></g><g style="opacity:0.090000000347694"><path d="M6305.89,882.34c-374.45-39.8-593.24-102.78-786.28-158.34-180.16-51.86-335.75-96.65-572-108.82-278.86-14.36-603.41,25.88-917.27,64.8-242.26,30-471.08,58.41-676.82,62.85-7.27.17-14.65.25-22.08.25-213.24,0-487.16-67.66-776.64-139.16C2198.25,515.85,1829.59,424.8,1542.2,453.26q-112.5,11.13-218.12,20.85c-558,52.38-998.82,93.74-1498.45,340l-1-2c230-113.37,460.5-190.48,725.4-242.67,241.71-47.62,488.3-70.76,773.82-97.56Q1429.41,462,1542,451.05c287.76-28.49,656.62,62.61,1013.33,150.72,299.4,74,582.15,143.83,798.14,138.85,205.62-4.44,434.39-32.8,676.59-62.83,314-38.94,638.61-79.19,917.65-64.82,236.54,12.18,392.24,57,572.54,108.9,193,55.54,411.64,118.49,785.89,158.27Z" style="fill:url(#b54a9143-2c88-418d-bcf2-6ebc1b736a9f)"/></g><g style="opacity:0.060000000397364"><path d="M6318.3,855.45C5938.71,812.49,5720,746.51,5527,688.3c-182.32-55-339.78-102.5-584-113.28-280.73-13.4-610.83,32.82-930.06,77.51-246.37,34.5-479.08,67.08-686.45,73.35-223.92,7-520.6-69.5-834.68-150.48-354.14-91.31-720.32-185.72-1000.12-161.86C811.74,471.52,360.74,525.32-168.28,783l-.92-1.9C82.12,658.68,332.73,575.27,619.48,518.6c270.14-53.38,554.73-80.12,872-107.17C1771.62,387.54,2138,482,2492.29,573.35c313.94,80.94,610.45,157.41,834.09,150.42,207.26-6.27,439.91-38.85,686.23-73.33,319.32-44.71,649.51-91,930.44-77.53,244.5,10.79,402.08,58.32,584.54,113.36,192.9,58.19,411.55,124.14,790.94,167.08Z" style="fill:url(#af9ea259-36b2-4ca8-9f0a-13be22d1ac41)"/></g><g style="opacity:0.030000000447035"><path d="M6330.7,828.69c-386-46.21-605.21-115.15-798.58-176C5348.33,594.88,5189.6,545,4938.33,535c-282.1-11.69-617,40.16-940.89,90.31-251.21,38.89-488.49,75.63-698,83.76q-17.52.69-35.64.69c-227.3,0-523-79.38-835.18-163.16C2077,452.24,1713.51,354.66,1441.11,374,849.64,415.84,375.12,493.69-162.18,752l-.87-1.82C88.72,629.15,330.51,544.8,597.87,484.74c238.73-53.63,498.76-88.42,843.1-112.8,272.76-19.31,636.44,78.3,988.14,172.71C2757.7,632.84,3068,716.14,3299.33,707.06c209.43-8.13,446.65-44.86,697.8-83.75,324-50.16,659-102,941.28-90.33,251.54,10,410.39,59.93,594.32,117.8C5726,711.58,5945.09,780.5,6331,826.69Z" style="fill:url(#bb883f36-c64c-492f-9c74-644ff770660e)"/></g><g style="opacity:0"><path d="M6343.12,802.07c-392.85-49.47-612.61-121.44-806.51-184.94-185-60.59-344.85-112.93-602.9-122-283.54-10-623.42,47.5-952.1,103.1C3725.7,641.51,3484,682.4,3272.36,692.4c-239.22,11.3-563.75-79.16-907.34-174.93-348.69-97.2-709.25-197.68-974.45-183C810.39,366.74,347.84,482.38-156.08,721.17l-.82-1.74C95.18,600,335,512.2,576.24,451.1,825.65,387.93,1092,349.17,1390.46,332.59c265.53-14.74,626.24,85.79,975.08,183,343.43,95.73,667.79,186.15,906.73,174.86,211.5-10,453.17-50.87,709-94.15C4310.06,540.7,4650,483.19,4933.77,493.19c258.33,9.1,418.26,61.47,603.44,122.11,193.81,63.47,413.48,135.41,806.15,184.86Z" style="fill:url(#bf542526-587a-4003-bac3-1a01922cf52d)"/></g></g></g></g></g></svg>
