<svg id="Layer_1" data-name="Layer 1" xmlns="http://www.w3.org/2000/svg" xmlns:xlink="http://www.w3.org/1999/xlink" viewBox="0 0 834.24 728.16"><defs><filter id="filter" x="0" y="0" width="834.24" height="728.16" filterUnits="userSpaceOnUse"><feOffset input="SourceAlpha"/><feGaussianBlur stdDeviation="3" result="blur"/><feFlood/><feComposite operator="in" in2="blur"/><feComposite in="SourceGraphic"/></filter></defs><path d="M158.53,12.71,9.76,325.2a6,6,0,0,0,1.3,7.06l401.79,385a6.13,6.13,0,0,0,8.48,0l401.79-385a6.06,6.06,0,0,0,1.3-7.07L675.65,12.73a6,6,0,0,0-5.48-3.51H164.06a6,6,0,0,0-5.53,3.49Z" style="fill:#50af95;fill-rule:evenodd;filter:url(#filter)"/><path d="M478.6,357.29h0c-2.89.21-171.26,1.1-204.5,1.1-26.44,0,108.25-.79,101.66-1.1h0c-102.18-4.5-178.45-22.29-178.45-43.58s76.27-39.07,178.45-43.63v69.49c6.68.48,25.82,1.61,52.26,1.61,31.73,0,47.62-1.32,50.48-1.59V270.13c102,4.54,178.07,22.33,178.07,43.58s-76.08,39-178.07,43.55h0Zm0-94.35V200.75H620.9V105.92H233.46v94.83H375.74v62.16c-115.65,5.32-202.62,28.22-202.62,55.68s87,50.33,202.62,55.67V573.53H478.57V374.18C594,368.87,680.78,346,680.78,318.56S594,268.25,478.57,262.91h0Zm0,0Z" style="fill:#fff;fill-rule:evenodd"/></svg>
